<?xml version="1.0" encoding="UTF-8"?><svg id="a" xmlns="http://www.w3.org/2000/svg" viewBox="0 0 209.97 318.57"><path d="M116.35,72.42c42.34,0,58.17,18.79,58.17,47.54v31.44c0,19.94-3.56,35.27-19,43.32,15.43,6.52,19,19.94,19,39.49v36.81c0,28.76-15.83,47.54-58.17,47.54H0V72.42h116.35ZM106.45,124.95c0-5.75-3.17-8.44-9.89-8.44h-28.49v56.74h28.49c6.73,0,9.89-2.68,9.89-8.44v-39.87ZM106.45,225.79c0-5.75-3.17-8.43-9.89-8.43h-28.49v57.13h28.49c6.73,0,9.89-2.68,9.89-8.43v-40.26Z" style="fill:#fff; stroke-width:0px;"/><path d="M194.27,52.31l2.26-9.9c.65-2.86,2.34-5.07,5.06-6.62-1.76-2.63-2.32-5.38-1.66-8.24l2.26-9.89c.69-3.03-.6-5.09-3.89-6.18l1.14-4.97c6.49,2.39,9.07,6.51,7.73,12.36l-2.26,9.89c-.76,3.31.39,5.34,3.44,6.08l.44.11-1.13,4.93-.45-.11c-3.05-.74-4.96.55-5.72,3.86l-2.26,9.89c-1.34,5.87-5.43,8.37-12.28,7.52l1.14-4.97c3.41.56,5.46-.69,6.16-3.75Z" style="fill:#fff; stroke-width:0px;"/><path d="M186.97,55.79l-1.14,4.97c-.07.32,0,.66.19.94.18.26.46.43.78.49.02,0,.04,0,.05,0,9.34,1.16,12.52-3.93,13.55-8.4l2.26-9.89c.73-3.19,2.36-3.36,3.86-3.1.15.03.3.06.46.09l.44.11c.3.08.62.02.89-.14.26-.16.45-.42.52-.72l1.13-4.92c.14-.62-.25-1.25-.88-1.41l-.45-.11c-1.2-.29-1.98-.78-2.39-1.5-.42-.75-.48-1.81-.17-3.17l2.26-9.9c1.02-4.46.38-10.47-8.48-13.72-.32-.12-.66-.09-.96.06-.29.16-.5.43-.58.75l-1.14,4.97c-.13.59.21,1.19.79,1.38,2.7.89,3.65,2.38,3.1,4.8l-2.26,9.89c-.64,2.81-.23,5.54,1.21,8.13-2.42,1.66-3.97,3.92-4.61,6.73l-2.26,9.89c-.56,2.45-2.06,3.34-4.85,2.88-.61-.1-1.18.28-1.31.87ZM188.42,60l.61-2.67c3.38.21,5.63-1.45,6.39-4.75l2.26-9.89c.59-2.56,2.06-4.49,4.51-5.88.28-.16.48-.42.55-.74.07-.31,0-.64-.17-.91-1.59-2.37-2.08-4.77-1.49-7.33l2.26-9.9c.75-3.27-.55-5.78-3.66-7.17l.61-2.67c5.04,2.21,6.87,5.57,5.75,10.49l-2.26,9.89c-.44,1.94-.3,3.57.42,4.84.64,1.14,1.73,1.96,3.22,2.45l-.62,2.72c-1.95-.31-5.29-.05-6.41,4.86l-2.26,9.9c-1.13,4.93-4.22,7.1-9.69,6.77Z" style="fill:#fff; stroke-width:0px;"/><path d="M157.74,22.6c3.05.74,4.96-.55,5.71-3.86l2.26-9.89c1.34-5.87,5.44-8.37,12.28-7.52l-1.14,4.97c-3.41-.56-5.46.69-6.16,3.76l-2.26,9.89c-.65,2.87-2.34,5.07-5.06,6.62,1.76,2.63,2.32,5.38,1.66,8.24l-2.26,9.9c-.69,3.03.6,5.09,3.89,6.18l-1.14,4.97c-6.49-2.39-9.07-6.51-7.73-12.35l2.26-9.9c.76-3.31-.39-5.34-3.44-6.08l-.45-.11,1.13-4.93.45.11Z" style="fill:#fff; stroke-width:0px;"/><path d="M156.16,22.22l-1.13,4.93c-.07.3-.01.62.15.88.17.26.43.45.73.53l.45.11c1.2.29,1.98.78,2.39,1.5.42.74.48,1.81.17,3.17l-2.26,9.89c-1.02,4.46-.38,10.47,8.49,13.72.07.03.14.04.21.06.25.04.52,0,.74-.12.29-.16.5-.43.58-.75l1.14-4.97c.13-.59-.21-1.19-.79-1.38-2.7-.89-3.65-2.38-3.1-4.8l2.26-9.89c.64-2.8.24-5.54-1.21-8.13,2.42-1.66,3.97-3.92,4.61-6.73l2.26-9.9c.56-2.45,2.06-3.34,4.84-2.88.61.1,1.18-.28,1.32-.87l1.14-4.97c.07-.32,0-.66-.19-.94-.19-.27-.5-.45-.83-.49-9.34-1.16-12.52,3.92-13.55,8.4l-2.26,9.9c-.73,3.19-2.36,3.36-3.86,3.1-.15-.03-.3-.06-.46-.09l-.45-.11c-.3-.08-.62-.03-.88.14-.26.16-.45.42-.52.72ZM157.57,26.59l.62-2.72c1.95.31,5.29.05,6.41-4.86l2.26-9.9c1.13-4.93,4.22-7.1,9.69-6.77l-.61,2.67c-3.38-.21-5.63,1.45-6.39,4.75l-2.26,9.89c-.59,2.56-2.06,4.49-4.51,5.88-.28.16-.48.42-.55.74-.07.31,0,.64.17.91,1.59,2.37,2.08,4.77,1.49,7.34l-2.26,9.89c-.75,3.27.55,5.78,3.66,7.17l-.61,2.67c-5.04-2.21-6.87-5.57-5.74-10.49l2.26-9.89c.44-1.94.3-3.57-.42-4.84-.64-1.14-1.73-1.96-3.22-2.45Z" style="fill:#fff; stroke-width:0px;"/></svg>