<?xml version="1.0" encoding="UTF-8"?><svg id="a" xmlns="http://www.w3.org/2000/svg" viewBox="0 0 893 250"><path d="M108.88,55.42c21.4,0,29.4,9.8,29.4,24.8v16.4c0,10.4-1.8,18.4-9.6,22.6,7.8,3.4,9.6,10.4,9.6,20.6v19.2c0,15-8,24.8-29.4,24.8h-58.8V55.42h58.8ZM103.88,82.82c0-3-1.6-4.4-5-4.4h-14.4v29.6h14.4c3.4,0,5-1.4,5-4.4v-20.8ZM103.88,135.42c0-3-1.6-4.4-5-4.4h-14.4v29.8h14.4c3.4,0,5-1.4,5-4.4v-21Z" style="fill:#fff; stroke:#fff; stroke-miterlimit:10;"/><path d="M204.48,164.61h-30.8l-4.2,19.2h-34.4l33-128.4h42.6l33,128.4h-35.2l-4-19.2ZM199.08,139.82l-9.8-46.2-10.2,46.2h20Z" style="fill:#fff; stroke:#fff; stroke-miterlimit:10;"/><path d="M278.68,138.21h-2.2v45.6h-35V55.42h59.4c21.4,0,29.4,9.8,29.4,24.8v33.2c0,11.8-4.8,20.2-17.2,23.4l23.6,47h-37.6l-20.4-45.6ZM276.48,80.42v34h13.8c3.4,0,5-1.4,5-4.4v-25.2c0-3-1.6-4.4-5-4.4h-13.8Z" style="fill:#fff; stroke:#fff; stroke-miterlimit:10;"/><path d="M392.88,55.42c21.4,0,29.4,9.8,29.4,24.8v16.4c0,10.4-1.8,18.4-9.6,22.6,7.8,3.4,9.6,10.4,9.6,20.6v19.2c0,15-8,24.8-29.4,24.8h-58.8V55.42h58.8ZM387.88,82.82c0-3-1.6-4.4-5-4.4h-14.4v29.6h14.4c3.4,0,5-1.4,5-4.4v-20.8ZM387.88,135.42c0-3-1.6-4.4-5-4.4h-14.4v29.8h14.4c3.4,0,5-1.4,5-4.4v-21Z" style="fill:#fff; stroke:#fff; stroke-miterlimit:10;"/><path d="M505.88,158.81v25h-78.8V55.42h77v25h-42v26.2h36.2v25h-36.2v27.2h43.8Z" style="fill:#fff; stroke:#fff; stroke-miterlimit:10;"/><path d="M543.88,138.21h-2.2v45.6h-35V55.42h59.4c21.4,0,29.4,9.8,29.4,24.8v33.2c0,11.8-4.8,20.2-17.2,23.4l23.6,47h-37.6l-20.4-45.6ZM541.68,80.42v34h13.8c3.4,0,5-1.4,5-4.4v-25.2c0-3-1.6-4.4-5-4.4h-13.8Z" style="fill:#fff; stroke:#fff; stroke-miterlimit:10;"/><path d="M663.67,55.42c21.4,0,29.4,9.8,29.4,24.8v36.8c0,15-8,24.8-29.4,24.8h-24.4v42h-35V55.42h59.4ZM658.07,84.82c0-3-1.6-4.4-5-4.4h-13.8v36.4h13.8c3.4,0,5-1.4,5-4.4v-27.6Z" style="fill:#fff; stroke:#fff; stroke-miterlimit:10;"/><path d="M747.27,164.61h-30.8l-4.2,19.2h-34.4l33-128.4h42.6l33,128.4h-35.2l-4-19.2ZM741.87,139.82l-9.8-46.2-10.2,46.2h20Z" style="fill:#fff; stroke:#fff; stroke-miterlimit:10;"/><path d="M859.07,158.81v25h-74.8V55.42h35v103.4h39.8Z" style="fill:#fff; stroke:#fff; stroke-miterlimit:10;"/><rect id="b" width="893" height="250" style="fill:none; stroke-width:0px;"/></svg>