<?xml version="1.0" encoding="UTF-8"?><svg id="b" xmlns="http://www.w3.org/2000/svg" viewBox="0 0 813.99 129.4"><g id="c"><path d="M59.3.5c21.4,0,29.4,9.8,29.4,24.8v16.4c0,10.4-1.8,18.4-9.6,22.6,7.8,3.4,9.6,10.4,9.6,20.6v19.2c0,15-8,24.8-29.4,24.8H.5V.5h58.8ZM54.3,27.9c0-3-1.6-4.4-5-4.4h-14.4v29.6h14.4c3.4,0,5-1.4,5-4.4v-20.8ZM54.3,80.5c0-3-1.6-4.4-5-4.4h-14.4v29.8h14.4c3.4,0,5-1.4,5-4.4v-21Z" style="fill:#fff; stroke:#fff; stroke-miterlimit:10;"/><path d="M154.9,109.7h-30.8l-4.2,19.2h-34.4L118.5.5h42.6l33,128.4h-35.2l-4-19.2ZM149.5,84.9l-9.8-46.2-10.2,46.2h20Z" style="fill:#fff; stroke:#fff; stroke-miterlimit:10;"/><path d="M229.1,83.3h-2.2v45.6h-35V.5h59.4c21.4,0,29.4,9.8,29.4,24.8v33.2c0,11.8-4.8,20.2-17.2,23.4l23.6,47h-37.6l-20.4-45.6ZM226.9,25.5v34h13.8c3.4,0,5-1.4,5-4.4v-25.2c0-3-1.6-4.4-5-4.4h-13.8Z" style="fill:#fff; stroke:#fff; stroke-miterlimit:10;"/><path d="M343.3.5c21.4,0,29.4,9.8,29.4,24.8v16.4c0,10.4-1.8,18.4-9.6,22.6,7.8,3.4,9.6,10.4,9.6,20.6v19.2c0,15-8,24.8-29.4,24.8h-58.8V.5h58.8ZM338.3,27.9c0-3-1.6-4.4-5-4.4h-14.4v29.6h14.4c3.4,0,5-1.4,5-4.4v-20.8ZM338.3,80.5c0-3-1.6-4.4-5-4.4h-14.4v29.8h14.4c3.4,0,5-1.4,5-4.4v-21Z" style="fill:#fff; stroke:#fff; stroke-miterlimit:10;"/><path d="M456.29,103.9v25h-78.8V.5h77v25h-42v26.2h36.2v25h-36.2v27.2h43.8Z" style="fill:#fff; stroke:#fff; stroke-miterlimit:10;"/><path d="M494.29,83.3h-2.2v45.6h-35V.5h59.4c21.4,0,29.4,9.8,29.4,24.8v33.2c0,11.8-4.8,20.2-17.2,23.4l23.6,47h-37.6l-20.4-45.6ZM492.09,25.5v34h13.8c3.4,0,5-1.4,5-4.4v-25.2c0-3-1.6-4.4-5-4.4h-13.8Z" style="fill:#fff; stroke:#fff; stroke-miterlimit:10;"/><path d="M609.09.5c21.4,0,29.4,9.8,29.4,24.8v36.8c0,15-8,24.8-29.4,24.8h-24.4v42h-35V.5h59.4ZM603.49,29.9c0-3-1.6-4.4-5-4.4h-13.8v36.4h13.8c3.4,0,5-1.4,5-4.4v-27.6Z" style="fill:#fff; stroke:#fff; stroke-miterlimit:10;"/><path d="M701.69,109.7h-30.8l-4.2,19.2h-34.4L665.29.5h42.6l33,128.4h-35.2l-4-19.2ZM696.29,84.9l-9.8-46.2-10.2,46.2h20Z" style="fill:#fff; stroke:#fff; stroke-miterlimit:10;"/><path d="M813.49,103.9v25h-74.8V.5h35v103.4h39.8Z" style="fill:#fff; stroke:#fff; stroke-miterlimit:10;"/></g></svg>