<?xml version="1.0" encoding="UTF-8"?><svg id="a" xmlns="http://www.w3.org/2000/svg" viewBox="0 0 812.99 128.4"><path d="M58.8,0c21.4,0,29.4,9.8,29.4,24.8v16.4c0,10.4-1.8,18.4-9.6,22.6,7.8,3.4,9.6,10.4,9.6,20.6v19.2c0,15-8,24.8-29.4,24.8H0V0h58.8ZM53.8,27.4c0-3-1.6-4.4-5-4.4h-14.4v29.6h14.4c3.4,0,5-1.4,5-4.4v-20.8ZM53.8,80c0-3-1.6-4.4-5-4.4h-14.4v29.8h14.4c3.4,0,5-1.4,5-4.4v-21Z" style="fill:#fff; stroke-width:0px;"/><path d="M154.4,109.2h-30.8l-4.2,19.2h-34.4L118,0h42.6l33,128.4h-35.2l-4-19.2ZM149,84.4l-9.8-46.2-10.2,46.2h20Z" style="fill:#fff; stroke-width:0px;"/><path d="M228.6,82.8h-2.2v45.6h-35V0h59.4c21.4,0,29.4,9.8,29.4,24.8v33.2c0,11.8-4.8,20.2-17.2,23.4l23.6,47h-37.6l-20.4-45.6ZM226.4,25v34h13.8c3.4,0,5-1.4,5-4.4v-25.2c0-3-1.6-4.4-5-4.4h-13.8Z" style="fill:#fff; stroke-width:0px;"/><path d="M342.8,0c21.4,0,29.4,9.8,29.4,24.8v16.4c0,10.4-1.8,18.4-9.6,22.6,7.8,3.4,9.6,10.4,9.6,20.6v19.2c0,15-8,24.8-29.4,24.8h-58.8V0h58.8ZM337.8,27.4c0-3-1.6-4.4-5-4.4h-14.4v29.6h14.4c3.4,0,5-1.4,5-4.4v-20.8ZM337.8,80c0-3-1.6-4.4-5-4.4h-14.4v29.8h14.4c3.4,0,5-1.4,5-4.4v-21Z" style="fill:#fff; stroke-width:0px;"/><path d="M455.79,103.4v25h-78.8V0h77v25h-42v26.2h36.2v25h-36.2v27.2h43.8Z" style="fill:#fff; stroke-width:0px;"/><path d="M493.79,82.8h-2.2v45.6h-35V0h59.4c21.4,0,29.4,9.8,29.4,24.8v33.2c0,11.8-4.8,20.2-17.2,23.4l23.6,47h-37.6l-20.4-45.6ZM491.59,25v34h13.8c3.4,0,5-1.4,5-4.4v-25.2c0-3-1.6-4.4-5-4.4h-13.8Z" style="fill:#fff; stroke-width:0px;"/><path d="M608.59,0c21.4,0,29.4,9.8,29.4,24.8v36.8c0,15-8,24.8-29.4,24.8h-24.4v42h-35V0h59.4ZM602.99,29.4c0-3-1.6-4.4-5-4.4h-13.8v36.4h13.8c3.4,0,5-1.4,5-4.4v-27.6Z" style="fill:#fff; stroke-width:0px;"/><path d="M701.19,109.2h-30.8l-4.2,19.2h-34.4L664.79,0h42.6l33,128.4h-35.2l-4-19.2ZM695.79,84.4l-9.8-46.2-10.2,46.2h20Z" style="fill:#fff; stroke-width:0px;"/><path d="M812.99,103.4v25h-74.8V0h35v103.4h39.8Z" style="fill:#fff; stroke-width:0px;"/></svg>