<?xml version="1.0" encoding="UTF-8"?><svg id="a" xmlns="http://www.w3.org/2000/svg" viewBox="0 0 944.1 289.21"><path d="M58.8,116.33c21.4,0,29.4,9.8,29.4,24.8v16.4c0,10.4-1.8,18.4-9.6,22.6,7.8,3.4,9.6,10.4,9.6,20.6v19.2c0,15-8,24.8-29.4,24.8H0V116.33h58.8ZM53.8,143.73c0-3-1.6-4.4-5-4.4h-14.4v29.6h14.4c3.4,0,5-1.4,5-4.4v-20.8ZM53.8,196.33c0-3-1.6-4.4-5-4.4h-14.4v29.8h14.4c3.4,0,5-1.4,5-4.4v-21Z" style="fill:#fff; stroke-width:0px;"/><path d="M154.4,225.53h-30.8l-4.2,19.2h-34.4l33-128.4h42.6l33,128.4h-35.2l-4-19.2ZM149,200.73l-9.8-46.2-10.2,46.2h20Z" style="fill:#fff; stroke-width:0px;"/><path d="M228.6,199.13h-2.2v45.6h-35V116.33h59.4c21.4,0,29.4,9.8,29.4,24.8v33.2c0,11.8-4.8,20.2-17.2,23.4l23.6,47h-37.6l-20.4-45.6ZM226.4,141.33v34h13.8c3.4,0,5-1.4,5-4.4v-25.2c0-3-1.6-4.4-5-4.4h-13.8Z" style="fill:#fff; stroke-width:0px;"/><path d="M342.8,116.33c21.4,0,29.4,9.8,29.4,24.8v16.4c0,10.4-1.8,18.4-9.6,22.6,7.8,3.4,9.6,10.4,9.6,20.6v19.2c0,15-8,24.8-29.4,24.8h-58.8V116.33h58.8ZM337.8,143.73c0-3-1.6-4.4-5-4.4h-14.4v29.6h14.4c3.4,0,5-1.4,5-4.4v-20.8ZM337.8,196.33c0-3-1.6-4.4-5-4.4h-14.4v29.8h14.4c3.4,0,5-1.4,5-4.4v-21Z" style="fill:#fff; stroke-width:0px;"/><path d="M455.79,219.73v25h-78.8V116.33h77v25h-42v26.2h36.2v25h-36.2v27.2h43.8Z" style="fill:#fff; stroke-width:0px;"/><path d="M493.79,199.13h-2.2v45.6h-35V116.33h59.4c21.4,0,29.4,9.8,29.4,24.8v33.2c0,11.8-4.8,20.2-17.2,23.4l23.6,47h-37.6l-20.4-45.6ZM491.59,141.33v34h13.8c3.4,0,5-1.4,5-4.4v-25.2c0-3-1.6-4.4-5-4.4h-13.8Z" style="fill:#fff; stroke-width:0px;"/><path d="M613.59,116.33c21.4,0,29.4,9.8,29.4,24.8v36.8c0,15-8,24.8-29.4,24.8h-24.4v42h-35V116.33h59.4ZM607.99,145.73c0-3-1.6-4.4-5-4.4h-13.8v36.4h13.8c3.4,0,5-1.4,5-4.4v-27.6Z" style="fill:#fff; stroke-width:0px;"/><path d="M808.99,219.73v25h-74.8V116.33h35v103.4h39.8Z" style="fill:#fff; stroke-width:0px;"/><path d="M697.19,225.53h-30.8l-4.2,19.2h-34.4l33-128.4h42.6l33,128.4h-35.2l-4-19.2ZM691.79,200.73l-9.8-46.2-10.2,46.2h20Z" style="fill:#fff; stroke-width:0px;"/><path id="b" d="M725.74,273.15c0,8.87,48.88,16.06,109.18,16.06,60.3,0,109.18-7.19,109.18-16.06,0-8.87-48.88-16.06-109.18-16.06h0c-60.3,0-109.18,7.19-109.18,16.06h0Z" style="fill:#fff; stroke-width:0px;"/><g id="c"><path id="d" d="M814.05,217.78c2.15,0,4.19,1.08,5.63,2.64,2.52,2.33,3.66,5.92,3.26,9.29-.21,1.92-.94,3.78-2.07,5.35-.21.32-.43.64-.64.96.33-.08-.04.21-.1.32-.9,1.13-2.06,2.01-3.32,2.71-.2.12-.39.24-.59.36,1.77,1.03,3.64,2.01,5.04,3.54,3.13.27,6.16,1.45,8.7,3.29,2.69,1.98,4.77,4.85,5.52,8.13.07.2.36.23.51.37,1.11.66,2.25,1.51,2.66,2.79.46,1.71.29,3.5.25,5.25-.08,1.36-.16,2.72-.34,4.07-.02.14-.05.43-.1.62-.18.68-.56,1.36-1.22,1.68-2.88,2.06-6.24,3.34-9.64,4.24-1.04.27-2.11.48-3.14.65-5.33.85-10.85.43-15.99-1.2-4.29-1.33-8.35-3.52-11.62-6.63-1.77-1.68-3.31-3.62-4.44-5.78-.21-.43-.35-.92-.27-1.4.12-1.95.62-3.85,1.09-5.74.19-.69.37-1.38.56-2.07-1.65-.4-3.29-.8-4.94-1.2-1.5-3.75-2.41-7.74-2.71-11.77-.24-3.59.14-7.25,1.35-10.65,1.07-3.08,2.7-6.02,5-8.35,1.1-.76,2.5-.73,3.78-.88,1.03-.1,2.12-.17,3.11-.24,1.24-.08,2.44-.12,3.69-.07.25.02.63.03.93.06,1.55.21,2.95,1,4.11,2.02.18.28.35,0,.53-.13,1.46-1.36,3.39-2.25,5.4-2.21h0Z" style="fill:#ac8f7c; stroke-width:0px;"/><path id="e" d="M813.94,219.22c-2,.02-4.22.49-5.16,2.34,0,0,2.26-.16,3.5,1.27,1.24,1.44.37,3.32,1.64,2.68,1.27-.64,5.86-1.08,6.06-2.39.19-1.31-1.16-3.39-2.48-3.59-.58-.09-2-.34-3.55-.32h0ZM793.48,220.19c-2.08.88-4.12,7.12-4.09,7.47.04.35,5.52-.12,5.52-.12,0,0,.42-1.25,2.43-3.32,2.01-2.06,6.6-3.66,7.06-3.57,0,0-4.97-.75-8.34-.76-1.12,0-2.06.08-2.58.3ZM803.27,223.28c-1.62.66-6.27,4.72-6.27,4.72,0,0,1.3-.52,2.61-.72s5.23-.2,5.5-.2l1.62-4.72s-1.84.26-3.47.92ZM811.32,228.71s-.06,0-.09.02c-.79.33-.89,5.3,2.83,5.91,3.72.61,4.18-2.64,4.18-2.64,0,0-5.84-3.37-6.93-3.28h0ZM821.17,244.89s-.06,0-.08,0c-4.9,0-8.87,2.01-8.87,4.48,0,2.48,3.97,4.48,8.87,4.48,4.9,0,8.87-2.01,8.87-4.48,0-2.46-3.92-4.46-8.79-4.48h0ZM799.97,248.42s-1.41,1.06-1.22,2.71c.19,1.65,1.59,10.16,14.78,12.86,13.18,2.7,23.12-4.24,23.44-4.74l-1.04-3.25s-3.97,2.83-10.3,4.68c-6.33,1.84-13.69,1.07-18.11-1.15-4.42-2.22-7.54-11.1-7.54-11.1h0Z" style="fill:#fff; stroke-width:0px;"/><path id="f" d="M814.26,217.05c-2.2-.1-4.34.81-5.96,2.27-1.22-1.02-2.65-1.73-4.24-1.95-2.52-.21-5.03.03-7.54.22-1.54.19-3.25.12-4.55,1.11-2.87,2.93-4.74,6.71-5.79,10.64-.83,3.14-1,6.52-.71,9.75.39,3.97,1.34,7.91,2.84,11.55,1.52.37,3.05.74,4.57,1.11-.15.56-.32,1.17-.46,1.7-.48,2.02-1,4.02-1.04,6.1.14,1.06.79,1.95,1.33,2.84,2.73,4.19,6.78,7.39,11.27,9.5,1.52.7,3.13,1.31,4.74,1.79,1.42.43,2.9.77,4.35,1.02,5.13.88,10.43.59,15.41-.78,3.26-.93,6.45-2.19,9.22-4.19.83-.43,1.3-1.32,1.51-2.2.25-1.6.34-3.24.43-4.85.04-1.73.18-3.49-.23-5.19-.42-1.64-1.88-2.73-3.28-3.53-.91-3.71-3.44-6.89-6.63-8.93-2.39-1.51-5.08-2.51-7.91-2.79-1.13-1.18-2.53-2.04-3.94-2.85,1.72-1,3.17-2.46,4.12-4.22-.04,0-.08,0-.12,0,1.31-1.88,2.09-4.26,2.09-6.8,0-3.39-1.38-6.48-3.57-8.5-1.53-1.65-3.66-2.78-5.93-2.84h0ZM814.23,220.16c.91,0,1.79.22,2.59.62.15.1.3.19.43.3.03,0,.06,0,.09,0,2.19,1.35,3.74,4.06,3.74,7.32,0,4.67-3.18,8.24-6.86,8.24s-6.78-3.49-6.85-8.08c0-.67.06-1.34.18-2,.05-.3.12-.61.21-.91.01-.04.03-.09.04-.13.05-.16.1-.32.16-.48,1.09-2.91,3.53-4.87,6.26-4.87h0ZM802.99,220.95c.65-.03,1.24.22,1.84.41.32.03.54.45.23.64-1.16.3-2.34.64-3.4,1.15-2.85,1.29-5.06,3.85-6,6.82-1.05,3.14-1.05,6.47-.88,9.74.19,3.16,1.78,6.16,4.16,8.23.26.27.76.47.79.93.6,3.1,2.01,6.07,4.23,8.35,2.12,2.23,4.96,3.79,7.84,4.59,3.58.99,7.35,1.04,10.99.46,4.01-.64,7.92-2.08,11.47-4.1.84-.35,1.04-.46,1.62-.78.07,1.32.14,2.63.14,3.95-.04,1.82-.04,3.66-.46,5.44-.5.36-1.02.7-1.55,1-4.99,2.73-10.74,3.98-16.41,3.74-4.08-.21-8.13-1.16-11.87-2.81-3.97-1.75-7.67-4.47-9.93-8.24-.27-.56-.77-1.08-.69-1.74.47-3.28,1.41-6.47,2.31-9.65-2.09-.51-4.19-1.02-6.28-1.52-1.16-3.26-1.93-6.67-2.09-10.13-.26-4.95,1.01-10.03,3.86-14.11.52-.67.99-1.52,1.83-1.82,2.74-.43,5.52-.52,8.28-.54h0ZM805.43,223.5c-.43,1.38-.82,2.83-.88,4.24-.22,3.32.75,6.74,2.89,9.32.25.23.69.64.34.98-.83.3-1.68.61-2.41,1.14-1.6,1.06-2.75,2.81-3.11,4.65,1.35-.7,2.72-1.39,4.18-1.84,2.91-.93,6.16-.81,8.96.42.2.13.98.26.39.38-2.25.8-4.5,1.9-5.99,3.82-1.24,1.59-1.78,3.58-1.66,5.56,1.1-1.3,2.39-2.43,3.8-3.39,2.82-1.96,6.29-3.23,9.76-2.83,2.79.4,5.5,1.58,7.6,3.49,1.72,1.63,3.08,3.75,3.47,6.11.11.29-.08.76.31.86.16.12.95.21.54.37-4.58,2.54-9.73,4.21-15,4.3-4.11.07-8.36-.83-11.75-3.24-3.09-2.15-5.07-5.67-5.69-9.35-.13-.27.01-.67-.23-.86-2.39-1.84-4.21-4.57-4.56-7.61-.15-1.68-.14-3.38-.05-5.06.18-2.91.91-5.93,2.85-8.18,1.47-1.7,3.59-2.67,5.75-3.15h0c.17-.04.33-.09.5-.13h0Z" style="fill:#000; stroke-width:0px;"/><path id="g" d="M850.05,180.64s0,0,0,0c-2.63,1.12-3.85,4.15-2.73,6.78l9.03,21.2,6.75,11.22,2.66-.78c.19-.06.38-.13.57-.2,2.63-1.12,3.85-4.15,2.73-6.78l-12.23-28.72c-.82-1.92-2.7-3.16-4.79-3.14-.69,0-1.36.14-1.99.41ZM815.41,223.05s0,0,0,0c-2.74.8-4.31,3.67-3.51,6.41,0,0,0,0,0,0,.8,2.74,3.67,4.31,6.41,3.51l42.54-12.46-5.68-9.11-39.77,11.65Z" style="fill:#000; stroke-width:0px;"/><path id="h" d="M839.58,183.28s10.05,16.43,20.26,32.99c5.11,8.28,10.26,16.6,14.21,22.9,1.97,3.15,3.65,5.8,4.86,7.67.6.94,1.09,1.68,1.42,2.16.17.24.29.43.35.5.05.07.48.3-.56-.55l-5.98,7.27c-1.12-.92-.86-.89-1.04-1.13-.18-.24-.35-.49-.56-.79-.41-.6-.92-1.38-1.55-2.35-1.25-1.94-2.94-4.61-4.93-7.78-3.97-6.34-9.13-14.66-14.24-22.96-10.23-16.58-20.28-33.02-20.28-33.02l8.03-4.91Z" style="fill:#000; stroke-width:0px;"/><path id="i" d="M877.33,2.08c-.69,10.96-1.38,21.92-2.07,32.88-9.09-6.16-18.19-12.31-27.28-18.47-.89-.5-2.1-1.63-2.8-1.74.86,2.89,3.34,4.91,5.3,7.07,7.42,7.17,15.91,13.15,24.41,18.88-.3,4.68-.6,9.36-.9,14.03-2.43.58-4.89,1.57-6.51,3.55-3.07,3.27-3.34,9,.06,12.13,2.27,2.39,5.74,2.5,8.79,2.92.71.23,3.47.08,1.58.78-1.97,1.26-4.35,1.99-6.02,3.67-2.04,2.66-.42,6.32,1.67,8.42,3,3.05,7.81,5.13,12,3.43,2.05-.78,2.78-3.01,2.83-5.02,2.13-.36,4.27-.73,6.3-1.49,5.31-1.73,8.93-6.34,11.82-10.86,2.21-2.97,1.82-7.45-.92-9.95,1.51-2.66,1.73-5.98.48-8.79-1.75-4.48-7.15-7.7-11.83-5.76-4.76-3.2-9.51-6.41-14.26-9.62.69-8.82.91-17.75-.06-26.54-.49-3.18-.65-6.65-2.46-9.42h0s-.14-.12-.14-.12h0ZM884.76,44.44c3.42,1.66,6.96,3.71,6.96,3.71l-1.61,1.68s-.97-.64-3.34.26c-2.37.89-3.86,2.72-4.2,2.59-.33-.13-5.96-1.33-6.17-1.73-.21-.39-.18-3.87.66-4.98.85-1.11,2.08-2.22,2.51-2.31.22-.04.66-.26,1.47-.27.81,0,2,.21,3.71,1.05Z" style="fill:#fff; stroke-width:0px;"/><path id="j" d="M888.19,49.7c-.52.14-4.66,2.58-5.06,3.04-.41.46-.57,2.15-.2,4.32.37,2.17,1.6,4.06,1.88,4.77.28.71-.44,2.98-.44,3.69,0,.71-.94,2.65-1.94,3.51-1,.86-3.02,2.88-4.09,3.8s-3.63,2.21-3.63,2.21c0,0-2.15,1.72-2.94,2.37s-1.14,4-.45,7.07,3.26,2.45,3.6,2.45,3.23-4.4,3.23-4.4c0,0-.43-1.26.5-3.45s2.6-3.03,2.6-3.03c0,0,3-1.05,4.72-3.06,1.72-2.01,4.3-1.34,4.3-1.34l.34-.38s2.98.37,3.29.42,4.29-.57,4.29-.57c0,0,2.36-1.5,3-1.72.63-.21.98-1.41,1.67-2.83,0,0-2.24.16-4.56-.2-2.32-.36-4.62-1.84-4.62-1.84,0,0,2.18-1.74,2.68-2.17.5-.43.27-3.3-1.39-5.62s-2.57-2.23-2.57-2.23c0,0-1.26.71-1.83.71s-.96-.14-1.17-2.02c-.22-1.87.58-2.71.58-3.1s-.7-.47-1.28-.48c-.19,0-.37.01-.5.05ZM879.13,59.7c-1.94,3.1-4.5,4.97-6.37,4.47s-2.28-1.16-2.28-1.16c0,0-.42,4.97,1.56,6.09,1.98,1.12,4.24,1.13,5.76-.13,1.52-1.26,3.36-3.22,3.52-4.37s.74-7.31.64-8.17-1.39-3.24-1.39-3.24c0,0,.5,3.39-1.44,6.5Z" style="fill:#999; stroke-width:0px;"/><path id="k" d="M878.08,80.86c.8,0,1.58.21,2.27.61,2.25,1.27,3.04,4.13,1.77,6.38l-15.88,28.09c-1.2,2.13-3.83,2.97-6.05,1.94l-34.3-15.97c-2.34-1.09-3.36-3.87-2.27-6.22,1.09-2.34,3.88-3.36,6.22-2.27,0,0,0,0,0,0l27.97,13.02c.14.17.29.33.47.51,2.1,2.06,2.94,6.53,2.94,6.53.5-.07,1.44-1.84.99-4.03-.29-1.44-.64-2.83-.9-3.81l12.66-22.39c.84-1.48,2.41-2.39,4.11-2.38h0Z" style="fill:#000; stroke-width:0px;"/><path id="l" d="M876.72,33.75s.26-.25,1.07-.25,1.29.44,1.31.55.95,2.05-.18,2.66c-1.12.61-2.38.15-2.38.15l-.4,7.3s.5-.71.88-1.51c.38-.8,1.91-4.6,2.35-4.99.44-.39,1.11-.42,1.11-.42,0,0,.98-27.61-.22-30.66s-1.74-3.6-1.74-3.6l-1.78,30.79ZM856.71,27.92c6.93,5.79,16.99,12.49,16.99,12.49l.13-5.25-29.39-19.96s5.34,6.92,12.27,12.72Z" style="fill:#999; stroke-width:0px;"/><path id="m" d="M877.05,0c-.86.05-1.37.63-1.37.63-.17.18-.27.41-.28.65,0,0-.98,15.6-1.89,30.1-13.25-8.97-27.76-18.79-27.76-18.79-.2-.14-.45-.2-.69-.17,0,0-.51.05-.99.39-.48.34-.92,1.1-.86,1.98.11,1.75,1.44,4,5.75,8.32,6.63,6.66,18.03,14.74,23.9,18.62-.38,5.92-.59,9.27-.74,11.51-1.31.36-2.6.88-3.78,1.68-5.23,3.56-6.94,10.58-3.34,15.58,1.83,2.54,4.59,3.99,7.55,4.34-1.09.55-2.03,1.36-2.67,2.44-1.26,2.11-1.1,4.7-.05,6.98,1.05,2.28,2.98,4.38,5.55,5.91,2.56,1.53,5.33,2.24,7.83,2.08,2.51-.15,4.86-1.23,6.13-3.35.48-.8.75-1.67.85-2.56,2.04-.32,5.08-1.02,8.17-2.64,2.87-1.51,5.38-4.21,7.34-6.73.98-1.26,1.81-2.48,2.44-3.49.63-1.01,1.03-1.7,1.27-2.43.51-1.55,1.09-4.14-.34-7.3-.31-.67-.7-1.24-1.12-1.74,1.71-3.64,1.13-8.32-1.53-11.9-2.71-3.66-7.09-5.52-11.11-4.71-.25.05-.48.13-.72.2-1.04-.69-5.91-3.97-12.51-8.44.47-5.72.97-17.45-.28-26.93-.55-4.16-1.23-6.58-1.98-8.08-.37-.75-.77-1.28-1.24-1.65-.47-.36-1.03-.53-1.5-.5h0ZM877.41,2.35c.14.14.3.29.52.73.56,1.13,1.24,3.39,1.78,7.43,1.25,9.42.72,21.71.25,27.1,0,0-1.36,3.91-2.28,5.31-.02.02-.02.04-.04.07-.65.84-1.33,1.89-1.74,3.33-.5,1.74-.83,4.18-1.07,6.32-.22.3-.44.58-.66.87.15-2.18.37-5.63.71-11.06h0s.07-1.17.07-1.17c0,0,0-.01,0-.02l.5-7.93c.94-14.83,1.89-30.05,1.94-30.98h0ZM845.33,14.83c.76.51,14.73,9.97,28.01,18.96l-.35,5.55c-6.05-4.07-16.57-11.67-22.58-17.7-3.93-3.94-4.95-6.08-5.09-6.8h0ZM876.83,33.68c-.7.37-1.15,1.13-1.15,1.97,0,1.21.93,2.19,2.07,2.19,1.14,0,2.07-.98,2.07-2.19,0-.8-.41-1.54-1.08-1.93.33.3.52.74.52,1.2,0,.88-.67,1.59-1.5,1.59-.83,0-1.5-.71-1.5-1.59,0-.48.21-.94.57-1.24h0ZM881.31,39.18c6.46,4.36,11.62,7.85,12.49,8.42.27.18.61.22.92.11.33-.12.65-.21.96-.27,3.12-.63,6.76.84,9.03,3.91,3.03,4.09,2.78,9.65-.8,12.44-2.38,1.85-5.56,1.89-8.31.51.04-.03.09-.07.14-.1.41-.31.75-.61,1.06-.89,2.16.89,4.49.72,6.24-.64,2.88-2.24,3.17-6.9.53-10.47-1.32-1.78-3.05-2.9-4.84-3.31-.45-.1-.9-.16-1.35-.17-1.34-.03-2.67.36-3.75,1.19-.43.34-.8.73-1.11,1.17-.62.23-1.18.53-1.68.92-.12.09-.41.3-.57.43.42-1.33,1.17-2.53,2.27-3.45.54-.45.48-1.3-.11-1.68-1.96-1.24-5.39-3.37-7.8-4.33-1.29-.51-2.47-.66-3.49-.67-.28,0-.54,0-.79.01.31-.84.74-2.07.97-3.12h0ZM880.82,44.37c.93-.01,1.91.07,3.04.52,1.73.69,4.39,2.27,6.37,3.5-.17.19-.32.39-.47.59-.28-.11-.58-.21-.89-.29-.49-.13-.97-.18-1.44-.15-1.4.07-2.65.74-3.65,1.48-.45.33-.85.69-1.22,1.05-.78-.97-1.65-1.62-2.67-1.9-.24-.07-.48-.09-.7-.09-.67.02-1.26.31-1.68.61-.07.05-.13.1-.19.15.17-1.12.36-2.17.59-2.95.29-1.03.76-1.77,1.26-2.44.55-.02,1.1-.07,1.66-.08h0ZM887.81,51.81c.08,0,.15.02.21.03.09.02.17.06.25.08-.23.75-.37,1.52-.43,2.31-1.21.9-2.27,1.69-2.27,1.69l-.29.21-.17.31c-.21.38-.37.77-.51,1.16-.08-.13-.17-.25-.26-.38,0-.1.02-.19.03-.29.06-.99-.05-1.9-.26-2.73.41-.5.98-1.11,1.59-1.57.8-.59,1.56-.87,2.09-.83h0ZM879.23,52.5c.2.12.64.34,1.07.97.52.76.92,1.82.84,3.27-.08,1.41-.7,2.76-1.29,3.82-.29.53-.57.95-.8,1.42-.12.23-.27.43-.3,1-.02.28.02.75.33,1.18.3.41.77.62,1.1.69-.4,1.15-1.22,2.24-2.47,3.1-1.48,1.01-3.14,1.33-4.63,1.11-.48-.92-.87-1.86-1.12-2.73-.41-1.45-.39-2.69-.2-3.15.69-1.74,2.57-4.52,4.26-6.68.91-1.17,1.79-2.44,2.51-3.28.3-.35.52-.55.7-.7h0ZM896,53.73c.79,0,1.55.16,2.12.45.83.43,2.06,1.5,2.68,2.48.31.49.46.94.48,1.2.02.26.01.31-.17.5-.68.7-1.21.81-1.9.85-.34.02-.71,0-1.11-.02-.4-.02-.83-.09-1.52.16-.92.34-1.07.69-1.47,1.07-.41.38-.86.81-1.36,1.19-1,.77-2.11,1.35-3.44,1.26-1.35-.1-2.13-.72-2.55-1.59-.4-.82-.35-1.93.2-3.08.55-.41,3.52-2.6,4.87-3.64.34-.26,1.32-.68,2.37-.8h0c.26-.03.53-.04.79-.04h0ZM872.96,55.12c-.58.76-1.17,1.55-1.72,2.37-.28.15-.56.31-.83.5-3.69,2.51-4.73,7.14-2.42,10.34,2.32,3.22,7.18,3.86,10.89,1.34,2.63-1.79,3.9-4.64,3.59-7.3l.89-1.53c.09-.19.17-.39.25-.59,1.41,3.74-.1,8.24-3.81,10.76-4.37,2.97-10.24,2.27-13.12-1.73-2.87-3.99-1.53-9.67,2.83-12.64,1.08-.73,2.26-1.23,3.47-1.52h0ZM905.92,64.8c.06.1.11.19.16.29,1.07,2.36.67,3.56.21,4.93,0,0-.38.82-.95,1.73-.56.91-1.33,2.04-2.24,3.21-1.81,2.32-4.19,4.75-6.28,5.85-2.63,1.38-5.24,2-7.01,2.29-.12-.4-.27-.79-.44-1.18-1.05-2.28-2.98-4.38-5.55-5.91-1.75-1.04-3.58-1.69-5.37-1.96.87-.34,1.72-.78,2.51-1.32,1.88-1.28,3.31-3.01,4.2-4.94,2.06,2.44,3.37,2.97,5.08,7.46.42,1.23,1.22,1.75,1.15-.19-.06-.96-.15-1.92-.35-2.86.13.11.26.21.41.3,1.38.86,3.64.5,5.72-.23.53.3,1.72.66,3.23.45,2.17-.31,2.96-1.47,3.12-1.67.16-.2-.11-.33-.44-.23,0,0-1.24.58-2.38.65-.54.03-.9-.09-1.14-.22.98-.5,1.78-1,2.22-1.38,1.56-1.35,1.4-2.04,1.11-2.16,0,0-4.26,2.32-7.23,2.63-1.84.38-4.34-1.73-3.83-4.31.62-.11,1.2-.3,1.73-.53,3.61,2.33,8.21,2.6,11.64-.07.25-.2.49-.41.72-.62h0ZM887.39,65.34c.43.23.89.42,1.37.55-.03.28-.01.71.04,1.2-.4-.64-.86-1.24-1.41-1.76h0ZM876.86,77.04c1.63.04,3.55.58,5.36,1.66,2.07,1.24,3.57,2.93,4.31,4.54.74,1.61.74,3.02.11,4.07-.63,1.05-1.86,1.72-3.63,1.83-1.77.11-3.97-.41-6.04-1.65-2.07-1.24-3.57-2.93-4.31-4.54-.74-1.61-.74-3.01-.11-4.07.55-.92,1.56-1.54,2.98-1.76.02,0,.09.06.09.06l.05-.08c.17-.02.34-.04.52-.06.22-.01.45-.02.68-.01h0Z" style="fill:#000; stroke-width:0px;"/><path id="n" d="M787.06,100.09c2.39.03,4.45,1.7,4.97,4.04.61,2.78-1.14,5.52-3.92,6.14,0,0,0,0,0,0l-31.9,7.04c-.73-1.05-2.28-2.73-5.08-3.34-4.18-.92-4.03.66-1.23,1.58,1.67.54,3.14,1.82,4.07,2.77l13.52,21.55c1.51,2.41.78,5.59-1.62,7.1-2.41,1.51-5.59.78-7.1-1.62l-17.69-28.19c-1.51-2.41-.79-5.59,1.62-7.1.5-.31,1.05-.54,1.63-.67l41.56-9.17c.34-.07.69-.12,1.04-.12.04,0,.09,0,.13,0h0Z" style="fill:#000; stroke-width:0px;"/><polygon points="785.35 110.88 753.97 118.32 747.26 114.6 749 110.88 785.35 110.88" style="fill:#000; stroke-width:0px;"/><path id="o" d="M775.66,21.94c5.51-2.16,11.71-2.47,17.42-.89,6.42,1.74,12.16,5.83,15.88,11.35.23.35.43.72.82.91.37.28.89.24,1.32.41,1.96.55,3.97,1.6,4.93,3.49,1.3,3.04,2.54,6.11,3.82,9.17.45,1.12,1.06,2.23,1.03,3.47.02,2.1-.96,4.06-2.13,5.76-.01.44-.2.9.06,1.3,13.91,33.53,27.81,67.05,41.72,100.58.31.26.56.62.99.69,1.67.58,3.31,1.69,3.95,3.41.75,1.83,1.53,3.65,2.26,5.48,0,.35.14.7.26,1.01.82.83.86,2.14.44,3.18-.51,1.32-1.42,2.44-2.37,3.47-.14.15-.41.42-.6.61-.2.37-.35.75-.33,1.18-.46,4.73-2.79,9.13-5.94,12.62-4.48,4.97-10.61,8.32-17.11,9.8-5.29,1.18-10.97,1.06-16.06-.91-2.09-.82-4.06-1.97-5.75-3.45-.38-.17-.77-.28-1.19-.24-1.75-.04-3.61-.18-5.12-1.16-.73-.49-1.24-1.32-1.25-2.21-.18-.33-.35-.66-.59-.94-.8-1.97-1.65-3.92-2.43-5.9-.55-1.69-.05-3.52.75-5.05,0-.43.12-.87-.13-1.26-13.9-33.5-27.8-67.01-41.69-100.51-.36-.25-.64-.67-1.11-.67-2.11-.42-4.3-1.26-5.66-3.02-.69-.93-.98-2.08-1.47-3.12-1.19-2.91-2.43-5.8-3.6-8.72-.65-2,0-4.15,1-5.92.24-.5.68-.91.69-1.49.1-.46-.14-.91-.18-1.37-.26-1.46-.4-2.93-.43-4.41,0-.19,0-.56,0-.79.05-7.09,2.9-14.12,7.83-19.22,2.79-2.92,6.24-5.2,10-6.65h0Z" style="fill:#fff; stroke-width:0px;"/><path id="p" d="M776.78,61.04l44.72,107.81-7.11,5.18-44.82-108.04,7.2-4.95Z" style="fill:#999; stroke-width:0px;"/><path id="q" d="M779.54,89.91c15.64-.23,31.28-.46,46.91-.69l-5.7-13.75c-15.64.23-31.28.46-46.92.69l5.7,13.75ZM799.08,137.02c15.64-.23,31.28-.46,46.92-.69l-5.7-13.75c-15.64.23-31.28.46-46.91.69l5.7,13.75ZM814.38,173.89c1.31-1.34,2.68-2.55,4.01-3.6-1.82.03-3.65.05-5.47.08l1.46,3.52Z" style="fill:#0055d4; stroke-width:0px;"/><path id="r" d="M788.73,53.14c-3.95,1.59-8.23,3.81-11.78,6.85-3.19,2.74-5.26,4.69-7.01,6.36,15.58-.23,31.16-.46,46.75-.69l-5.7-13.75c-6.59.1-13.18.19-19.77.29-.81.28-1.64.59-2.48.93h0ZM789.31,113.47c15.64-.23,31.28-.46,46.92-.69l-5.7-13.75c-15.64.23-31.28.46-46.91.69l5.7,13.75ZM808.85,160.57c15.64-.23,31.28-.46,46.91-.69l-5.7-13.75c-15.64.23-31.28.46-46.91.69l5.7,13.75Z" style="fill:#d40000; stroke-width:0px;"/><path id="s" d="M772.52,24.87c-.45.33-.67.55-.67.55,0,0,.27-.17.78-.35l-.11-.2h0ZM779.49,25.23s.03,0,.04,0c7.2,1.84,12.2,8.86,12.2,8.86l12.83-1.17-.53-.29s-6.28-7.64-15.25-8.35c-3.69-.29-6.84.23-9.29.94h0ZM794.29,37.65c2.32.4,3.71,6.65,3.71,6.65,0,0,7.75-.81,11.88-1.08,1.29-.08,2.6.03,3.79.23-.77-1.66-2.3-5.43-2.72-6.46-1.55-.4-3.44-.7-5.67-.73-6.8-.08-10.98,1.39-10.98,1.39h0ZM816.64,44.14c1.03.31,1.69.57,1.69.57l-.38-.86c-.4.11-.85.21-1.31.29h0ZM844.71,159.32s1.26,1.24,2.25,2.69c.99,1.45,2.1,5.69,2.1,5.69,0,0,4.76-.97,6.33-1.42,1.57-.45,6.63-.33,6.63-.33,0,0-2.5-6.7-2.63-7.01-4.99-2.61-14.68.39-14.68.39h0ZM852.16,172.39s1.55,4.41,1.23,10.5c-.33,6.09-4.61,10.55-4.8,10.88-.2.33.99.32,1.38.15.39-.16,6.78-4.64,9.12-10.33,2.35-5.69,1.73-12.09,1.73-12.09l-8.66.89h0Z" style="fill:#5f8dd3; stroke-width:0px;"/><path id="t" d="M772.15,32.55c-.55,3.76.7,9.5.7,9.5l5.51-2.85c-.12-.27-1.51-3.12-2.52-7.27-1.01-4.15-.84-6.72-.84-6.72,0,0-2.29,3.57-2.84,7.34ZM772.91,47.04c-.62.5.75.63,1.85,2.59,1.1,1.95,2.03,4.2,2.03,4.2l6.09-4.05-3.01-6.48s-6.34,3.25-6.95,3.75ZM792.79,47.36c-1.05.37-2.24.82-3.55,1.36-6.86,2.83-16.17,7.4-16.58,7.64-.6.35,5.08,1.7,7.01.52,1.45-.89,15.06-5.02,21.71-7.01,4.71.07,11.95-.2,11.95-.2,0,0,3.34,4.12,4.33,5.01,0,0,1.98-1.3,2.64-3.6.66-2.3-2.1-6.33-8.93-6.96-6.83-.63-18.85,3.05-18.85,3.05,0,0,.18.13.26.19ZM836.42,162.43c-2,.85-6.2,2.91-6.2,2.91l3.3,8.61,5.41-2.5s-.96-1.16-2.1-3.64c-1.14-2.48.4-5.27.62-5.7.06-.11-.37.04-1.03.32h0ZM836.1,178.99s2.82,5.26,6.67,8.83c3.86,3.57,5.44,4.39,5.44,4.39,0,0,.75-.21.39-.79-.36-.59-2.75-3.7-5.06-8.1-2.31-4.4-2.86-6.65-2.86-6.65l-4.58,2.32Z" style="fill:#999; stroke-width:0px;"/><path id="u" d="M759.54,38.52c-2.27,7.16-.62,14.14-.43,14.48.19.34,8.68-7.19,8.68-7.19,0,0-1.05-5.2-.36-9.83.69-4.63,4.07-10.28,4.07-10.28,0,0-9.68,5.66-11.95,12.82ZM761.81,55.59l-1.77,2.69s-1.47,2.9-1.28,4.7c.18,1.8,2.25,5.16,2.25,5.16,0,0,7.43-9.35,7.31-9.65-.12-.29-1.35-3.6-2.29-4.22-.94-.63-2.57-.73-2.57-.73l-1.64,2.05ZM821.2,169.68s-9.99,7.96-11.38,11.54c-1.39,3.58,2.53,8.9,2.53,8.9,0,0,1.82-2.79,4.06-4.85,2.23-2.06,8.68-6.36,8.68-6.36l-3.9-9.23h0ZM826.37,183.22c-1.3.81-7.71,4.78-8.14,6.18-.44,1.4,3.67,9.32,14.04,9.56,10.37.24,14.06-1.88,14.19-2.44.13-.56-.93-1.86-.93-1.86-1.37-.16-17.86-12.26-19.16-11.44h0Z" style="fill:#ac8f7c; stroke-width:0px;"/><path id="v" d="M801.58,48.75l-10.51,4.36,45.3,109.22,10.51-4.36-45.3-109.22Z" style="fill:#fff; stroke-width:0px;"/><path id="w" d="M774.67,21.27c-13.16,5.46-20.14,19.57-17.16,33.07-.38.59-.72,1.17-1,1.75-1.05,2.17-1.38,4.43-.55,6.43l4.27,10.29s.02.06.03.09c.83,2.01,2.67,3.37,4.94,4.17.76.27,1.59.47,2.46.63l41.86,100.93c-.04.07-.08.14-.11.22-1,2.02-1.34,4.13-.56,6.01l2.31,5.58c.11.25.28.47.51.63.02.43.1.85.27,1.26.67,1.6,2.33,2.42,4.3,2.78.99.18,2.11.25,3.34.24,2.39,2.09,5.35,3.6,8.64,4.47,5.96,1.57,13,1.1,19.78-1.71,6.78-2.81,12.09-7.46,15.18-12.79,1.7-2.93,2.73-6.1,2.94-9.26.88-.86,1.62-1.71,2.19-2.55,1.14-1.65,1.73-3.41,1.07-5.01-.17-.41-.41-.77-.7-1.09.05-.27.02-.55-.08-.8l-2.27-5.48s-.03-.06-.04-.09c-.77-1.87-2.5-3.12-4.61-3.84-.08-.03-.17-.05-.25-.08l-41.87-100.95c.5-.73.94-1.45,1.28-2.17,1.04-2.17,1.38-4.44.54-6.44-.01-.03-.03-.06-.04-.09l-4.27-10.29c-.82-1.99-2.64-3.34-4.89-4.13-.63-.22-1.3-.4-2-.55-7.45-11.64-22.37-16.67-35.52-11.21h0ZM775.78,23.94c11.08-4.6,23.5-.97,30.56,8.09-.74-.03-1.51-.03-2.31,0-6.3.18-14.18,1.99-22.34,5.34,0,0,0,0,0,0-.1.04-.2.08-.3.12-3.99,1.65-7.66,3.52-10.93,5.51-.51-2.04-1.3-6.36-.19-10.62.87-3.34,2.37-5.9,3.51-7.5.65-.33,1.31-.64,2-.93h0ZM770.43,26.94c-1.61,2.35-3.59,5.72-4.42,9.13-1.06,4.37-.64,8.23-.3,10.11-.71.53-1.39,1.06-2.03,1.59-.32-1.78-.81-5.71-.01-9.92.55-2.87,2.26-6.01,3.8-8.39.92-.91,1.91-1.75,2.97-2.52h0ZM761.6,49.6c-.6.56-1.16,1.13-1.68,1.69-.59-4.71.13-9.42,1.96-13.64-1,4.88-.53,9.95-.28,11.95ZM782.79,40.04c7.89-3.24,15.51-4.95,21.32-5.12,2.91-.09,5.36.22,7.11.84,1.76.62,2.75,1.48,3.18,2.51l2.13,5.14s-.06-.03-.09-.04c-2.28-.8-5.07-1.1-8.25-1-6.36.2-14.31,2.04-22.52,5.44-5.27,2.19-10.01,4.76-13.95,7.47l-3.07-6.16c-1.39.97-3.42,2.52-5.29,4.5.21.17.42.34.59.5.69.61,2.27,4.34,2.62,5.19-.22.2-.45.4-.66.61-.45.42-.87.85-1.28,1.27l-2.78-5.79c-.72.94-1.37,1.93-1.87,2.98l2.33,5.57c-.61.84-1.12,1.68-1.52,2.52-.01.03-.03.06-.04.09l-2.13-5.14c-.43-1.04-.33-2.36.48-4.06.82-1.7,2.36-3.66,4.5-5.67,4.28-4.02,10.96-8.23,18.89-11.52,0,0,0,0,0,0,.09-.04.19-.08.28-.12h0s0,0,0,0ZM786.79,50.49c7.93-3.29,15.62-5.04,21.5-5.22,2.94-.09,5.42.22,7.2.84s2.79,1.49,3.22,2.54c.05.12.09.24.13.37.26.97.09,2.16-.62,3.64-.02.03-.04.07-.05.1l-1.38-3.33c-.11-.26-.28-.5-.5-.68-2.1-1.73-4.58-1.38-6.05-1.52-.04,0-.08,0-.12,0-7.57-.18-14.79,2.05-21.39,4.55h0s-.03.01-.04.02c0,0,0,0,0,0h0s0,0,0,0c-.04.02-.08.04-.12.06-5.36,2.2-10.62,4.84-15.43,8.34-.02.01-.03.02-.05.04-2.86,2.24-6.14,4.75-8,8.54v-.02c-.15.33-.25.73-.28,1.14-.08.35-.05.72.09,1.05l1.38,3.33s-.09-.03-.13-.04c-1.55-.54-2.52-1.27-3.02-2.14-.06-.11-.12-.23-.17-.34-.44-1.05-.34-2.37.48-4.07.82-1.7,2.35-3.67,4.49-5.69,4.28-4.03,10.95-8.24,18.88-11.53h0ZM789.97,55.04c6.43-2.44,13.22-4.48,20.03-4.32,1.71.15,3.01.17,3.78.59l43.57,105.05c-1.05-.08-2.16-.1-3.33-.05-5.91.22-13.3,1.94-20.97,5.09h0c-.07.03-.15.06-.22.09-7.7,3.19-14.2,7.23-18.57,11.27-.88.82-1.67,1.63-2.37,2.45l-43.58-105.07c1.42-2.75,4.1-4.95,6.88-7.14,4.53-3.3,9.56-5.83,14.79-7.97h0ZM834.14,164.02c7.4-3.05,14.55-4.68,19.99-4.88,2.72-.1,5.01.17,6.64.72,1.63.56,2.53,1.33,2.91,2.24,0,0,0,0,0,.01,0,.02.01.04.02.05,0,0,0,0,0,.01l1.22,2.95c-2.62-.32-5.86-.02-9.67.71-5.37,1.03-11.73,2.98-18.26,5.69-1.89.78-3.72,1.61-5.48,2.45-.53-.77-2.18-5.24-2.97-7.41,1.71-.87,3.5-1.69,5.37-2.47h0c.07-.03.14-.06.21-.09h0s0,0,0,0ZM818.39,172.97c.22.8.59,1.94,1.19,3.21.59,1.23,1.38,2.41,2,3.27-.52.33-1.02.66-1.51.99-.12.08-.22.16-.34.23-.43-.54-.94-1.22-1.34-1.95-.64-1.18-1.43-3.08-1.87-4.17.58-.52,1.2-1.05,1.87-1.58h0ZM814.2,180.3c.53,1.29,1.25,2.44,1.77,3.22-1.3,1.1-2.39,2.18-3.23,3.26l-1.26-3.03c-.38-.92-.29-2.11.48-3.66.33-.68.8-1.4,1.38-2.16.22.69.49,1.49.86,2.37ZM838.09,174.15c6.37-2.64,12.59-4.54,17.71-5.53,2.29-.44,4.36-.66,6.13-.72,1.05,0,1.97.07,2.72.21,1.57.29,2.28.82,2.48,1.31s.08,1.36-.82,2.68c-.09.13-.19.26-.29.39-.34-2.65-1.63-3.29-6.6-2.89-5.72.72-13.04,2.76-20.74,5.96h0c-7.7,3.19-14.32,6.93-18.87,10.47-3.41,2.66-4.63,4.9-2.63,6.7-.15-.02-.32-.04-.47-.06-1.57-.29-2.28-.82-2.48-1.31s-.08-1.36.82-2.68c.43-.63,1.03-1.32,1.76-2.05,1.29-1.21,2.91-2.53,4.85-3.85,4.32-2.93,10.05-5.99,16.43-8.64h0ZM839.61,177.83c7.53-3.12,14.7-5.11,20.1-5.79,3.21-.4,3.36.7,3.38,3.22-.07,2.82-.96,5.71-2.56,8.48-2.21,3.8-5.78,7.31-10.37,9.88-.9-.39-3.47-1.24-7.95-4.42-4.76-3.38-7.4-7.22-8.35-8.78,1.83-.89,3.75-1.76,5.75-2.59h0ZM826.52,184.42c.8,1.07,3.94,5.11,7.5,7.27,4.1,2.48,7.1,3.81,7.1,3.81,0,0-2.14.34-8.11-1.79-5.97-2.13-9.58-6.54-9.44-7.29,0-.04.03-.08.04-.13.9-.62,1.87-1.25,2.89-1.87h0ZM820.7,188.47c1.04,1.55,4.76,6.36,11.58,7.66,4.11.78,7.51.81,9.92.63-4.67,1.14-9.25,1.1-13.18.06-4.38-1.16-7.92-3.52-10.03-6.86.51-.48,1.09-.98,1.71-1.48h0Z" style="fill:#000; stroke-width:0px;"/><path id="x" d="M764.32,133.36c2.05.11,4.09,1.31,4.92,3.23.56,1.18.59,2.52.37,3.79.75.73,1.6,1.41,2.38,2.13,3.69,3.31,7.34,6.69,10.57,10.46,1.32,1.62,2.67,3.3,3.37,5.29.37.99.33,2.09.03,3.1-.63,2.52-1.65,4.94-2.79,7.27-.85,1.64-1.8,3.27-3.16,4.54-1.14,1.06-2.76,1.44-4.28,1.43-1.49-.01-2.93-.63-4.06-1.6-.42.01-.89.17-1.33.07-1.92-.32-3.77-1.32-4.89-2.94-1.33-.44-2.67-.91-3.84-1.69-.13-.09-.43-.29-.61-.44-1.38-1.03-2.32-2.53-2.93-4.13-.77-1.88-1.41-3.9-1.28-5.96.08-1.17.69-2.35,1.79-2.86.75-.4,1.6-.5,2.41-.71-1.07-2.19-2.16-4.43-2.43-6.89.06-.39-.31-.45-.58-.58-1.89-.81-3.2-2.77-3.23-4.82-.08-2.75,1.52-5.33,3.69-6.91,1.68-1.23,3.79-1.94,5.88-1.79h0Z" style="fill:#fff; stroke-width:0px;"/><path id="y" d="M784.53,159.48s-1.09,2.66-3.51,2.75c-2.42.1-2.53-2.66-2.98-3.7s-1.27-1.41-1.86-.88-.61,2.95-2.27,3.33c-1.66.38-2.02-2.31-2.45-2.89-.43-.58-1.17,2.4-2.21,3.37s-2.56-.79-2.64-2.27c-.08-1.48-.79-2.19-1.1-2.09-.3.1-1.44.8-2,.45-.55-.34-.91-1.53-2.85-1.53-1.95,0-5.06,1.74-2.71,6.05,2.36,4.3,4.01,5.73,6.67,7.03,2.66,1.3,7.17,3.18,9.88,3.68,2.7.5,5.54,2.2,7.07-1.18,1.54-3.39,4.06-11.54,2.95-12.12h0Z" style="fill:#999; stroke-width:0px;"/><path id="z" d="M758.2,134.1c-1.54,1.04-2.82,2.47-3.62,4.15-.79,1.66-1.09,3.6-.6,5.39.49,1.84,1.87,3.42,3.62,4.17.26,2.06,1.05,4.02,1.96,5.87-.24.05-.47.11-.7.19-.88.31-1.72.83-2.25,1.61-.68.97-.89,2.2-.83,3.36.11,2.07.77,4.06,1.6,5.94.42,1,.97,1.95,1.7,2.77,1.17,1.35,2.74,2.29,4.39,2.93.46.19.93.33,1.39.49.97,1.31,2.4,2.23,3.94,2.73.83.26,1.72.51,2.59.33.75.6,1.63,1.05,2.56,1.3,1.61.45,3.36.3,4.92-.3,1.16-.43,2.1-1.3,2.86-2.25,1.5-1.88,2.57-4.06,3.5-6.27.7-1.68,1.35-3.4,1.75-5.18.19-.75.27-1.53.15-2.3-.23-1.41-.91-2.7-1.69-3.88-1.31-1.98-2.89-3.76-4.52-5.48-3.24-3.41-6.74-6.57-10.27-9.67.03-.19.05-.39.06-.58.12-1.64-.36-3.32-1.4-4.6-1.09-1.37-2.76-2.21-4.49-2.42-2.32-.29-4.7.4-6.62,1.69h0ZM759.75,136.67c.92-.65,1.99-1.1,3.11-1.24.88-.11,1.82-.03,2.62.33.89.37,1.62,1.12,1.93,2.03-.33-.12-.67-.2-1.01-.26-1.72-.29-3.5.26-4.9,1.25-1.74,1.27-3.08,3.11-3.66,5.19-.04.05-.02.29-.1.18-.75-.81-1.01-1.99-.87-3.07.17-1.24.77-2.38,1.61-3.3.39-.43.8-.78,1.27-1.11h0ZM763.49,141.24c.1-.07.2-.13.3-.19.81-.49,1.85-.51,2.7-.11.14.03.24.19.39.18,2.21,1.91,4.4,3.84,6.53,5.83,2.29,2.14,4.55,4.33,6.63,6.68,1.08,1.24,2.15,2.52,3,3.93.4.68.8,1.4.88,2.2.04.52-.15,1-.27,1.49-.59,2.07-1.34,4.1-2.27,6.03-.64,1.3-1.33,2.59-2.28,3.7-.22.26-.47.51-.73.72-.4.36-.93.51-1.43.61-.83.19-1.69.1-2.47-.24.34-.4.69-.82.99-1.25,1.23-1.77,2.35-4.59,1.46-6.88-.12-.23-.37-.48-.65-.37-.29.15-.39.5-.46.79-.52,1.49-3.38,5.66-4.93,6.53-.88-.15-1.72-.47-2.44-1,.66-.64,1.2-1.4,1.65-2.2.75-1.36,1.26-2.89,1.22-4.46-.04-.46-.08-.93-.25-1.36-.07-.24-.31-.43-.57-.36-.3.12-.49.4-.66.65-.8,1.35-1.56,2.74-2.45,4.04-.44.6-.86,1.23-1.45,1.68-1.23-.38-2.46-.83-3.48-1.64-.78-.61-1.37-1.42-1.79-2.29-.67-1.45-1.24-2.96-1.5-4.55-.09-.65-.15-1.3.04-1.94.05-.29.34-.41.57-.53.47-.23,1.08-.38,1.56-.08.53.85,1.08,1.69,1.68,2.48-.04.47-.17.92-.31,1.36-.14.48-.37.96-.36,1.47-.02.34.28.61.6.63.47.05.86-.31,1.11-.67.56-.84.86-1.82,1.17-2.78.17-.5.28-1.03.49-1.52.22-.55.85-.8,1.41-.78.14,0,.35.09.41-.09,0-.28-.06-.58-.22-.83-.29-.45-.85-.58-1.35-.61-.51-.03-1.01.07-1.52.08-.2-.31-.38-.61-.57-.92-.91-1.55-1.73-3.15-2.36-4.83-.43-1.21-.76-2.49-.72-3.8.02-.96.27-1.91.76-2.73.5-.81,1.17-1.53,1.94-2.09h0Z" style="fill:#000; stroke-width:0px;"/><path id="aa" d="M923.69,206.06c.54.12,1.03.24,1.58.39.72.19,1.44.43,2.11.66.32.11.71.26,1.06.4.13.06.4.16.58.24,1.35.6,2.67,1.32,3.78,2.3.13.13.27.29.42.46,1.2,1.49,1.77,3.36,2.28,5.18,1.19,4.6,1.29,9.42.82,14.14-.52,4.84-1.86,9.57-3.74,14.06-.7,1.69-1.45,3.35-2.26,4.98-.29.59-.63,1.24-.96,1.85-1.05,1.97-2.22,3.95-3.47,5.82-.68,1.01-1.39,2.01-2.22,2.9-.1.11-.31.32-.45.46-.55.53-1.31.75-2.03.96-3.72,1-7.48,1.87-11.24,2.73.65,1.56,1.34,3.06,1.9,4.66.3.89.59,1.79.7,2.72.03.61-.23,1.24-.76,1.57-4.53,4.04-9.45,7.75-14.79,10.71-3.86,2.07-8.01,3.63-12.32,4.44-2.34.4-4.8.53-7.09-.16-1.53-.49-2.93-1.5-3.7-2.92-.45-.71-.83-1.47-1.16-2.23-.05-.12-.17-.39-.24-.57-.4-.99-.72-2.01-1.02-3.04-.11-.41-.25-.89-.35-1.31-.42-1.55-.73-3.17-.48-4.77-.45-3.14-.65-6.33-.44-9.51-.11-.59-.57-1-1.01-1.37-1.1-1.16-1.98-2.54-2.49-4.06-.68-1.94-.76-4.08-.2-6.06.4-1.5,1.03-2.97,2.1-4.12,1.02-1.19,1.98-2.45,3.07-3.57,1.62-1.21,3.2-2.52,5.05-3.34,2.95-1.24,6.34-1.59,9.42-.66.47.14.93.3,1.39.48.27.11.64.27.94.42.41.2.84.52,1.32.38.7-.16,1.02-1,.82-1.65-.4-3.78-1.02-7.57-.84-11.38.03-.79.09-1.65.18-2.47.05-.41.12-.96.18-1.37.32-2.12.86-4.22,1.67-6.21.06-.15.16-.39.23-.55.55-1.23,1.15-2.45,1.96-3.53.09-.11.27-.35.4-.51,2.17-2.65,5.23-4.48,8.49-5.46,2.99-.93,6.14-1.29,9.26-1.19.47.02.99.07,1.43-.14,1.52-.93,3.29-1.6,5.1-1.49,1.44.09,2.88.33,4.3.6.24.05.48.1.72.15h0Z" style="fill:#ac8f7c; stroke-width:0px;"/><path id="ab" d="M919.57,206.24c-3.79-.37-7.2,1.7-8.28,2.15-1.08.45-4.92-.31-11.61,2.27-6.69,2.58-7.84,13.88-7.84,13.88,0,0,.59-3.4,5.24-5.38,4.65-1.99,10.24-2.67,10.24-2.67l10.88,3.34s1.94-5.79,6.91-7.12c4.97-1.33,8.13,2.95,8.54,3.12,0,0-1.58-4.95-2.46-6.17-.66-.91-4.74-2.16-8.34-2.89-1.2-.24-2.34-.42-3.29-.52ZM882.47,240.87c-4.04-.25-9.73,4.31-7.56,3.89,2.18-.42,6.59,3.43,6.59,3.43,0,0,2.36-.73,4.33-1.09,1.98-.37,3.75-1.91,5.24-2.83,1.21-.75-2.56-2.35-6.18-3.07-.84-.16-1.66-.28-2.42-.33Z" style="fill:#fff; stroke-width:0px;"/><path id="ac" d="M925.82,205.84c-1.75-.49-3.52-.86-5.3-1.08-1.39-.2-2.83-.33-4.21.06-1.06.26-2.13.74-3.11,1.35-.5.12-1.04.01-1.56.02-3.43-.04-6.85.44-10.1,1.63-3.51,1.26-6.74,3.58-8.74,6.73-2.62,4.33-3.7,9.43-3.78,14.45-.09,3.59.5,7.21.87,10.79.13.34-.03.89-.48.76-1.39-.75-2.89-1.3-4.44-1.59-2.92-.55-6.08-.07-8.82,1.14-1.83.89-3.42,2.18-5.03,3.4-1.26,1.33-2.38,2.79-3.58,4.18-1,1.38-1.62,3.02-1.95,4.69-.69,3.46.48,7.16,2.87,9.73.29.43.87.65,1,1.18-.19,3.16,0,6.29.44,9.42-.2,1.38-.01,2.78.3,4.13.71,2.86,1.55,5.81,3.16,8.33.99,1.73,2.8,2.84,4.71,3.28,2.4.54,4.85.35,7.23-.1,4.43-.9,8.72-2.56,12.64-4.75,5.16-2.94,9.95-6.55,14.36-10.51.79-.53,1.08-1.54.95-2.45-.43-2.27-1.4-4.39-2.29-6.51,2.85-.65,5.69-1.32,8.51-2.04,1.34-.4,2.85-.6,4.01-1.42,1.33-1.24,2.38-2.76,3.38-4.27,2.67-4.13,4.92-8.51,6.73-13.06,1.85-4.6,3.12-9.43,3.54-14.39.37-4.64.18-9.38-1.05-13.85-.61-2.06-1.35-4.23-2.97-5.73-2.12-1.74-4.73-2.75-7.31-3.51h0ZM922.33,209.36c1.88.48,3.76,1.02,5.57,1.73.93.45,2.04.71,2.71,1.56,1.28,1.82,1.76,4.05,2.15,6.21.99,6.14.42,12.48-1.35,18.42-1.71,5.49-4.15,10.74-7.16,15.63-.97,1.51-1.9,3.07-3.16,4.35-.84.46-1.82.6-2.73.88-4.51-.7-9.03-1.4-13.54-2.1.25-.28.51-.56.76-.84.72-.65,1.11-1.54,1.5-2.4,1.97-4.48,3.66-9.05,5.37-13.63,2.03-5.54,4.04-11.08,5.95-16.66.88-2.4,1.62-4.93,3.23-6.96,1.35-1.72,3.52-2.53,5.62-2.87-.48-.29-1.03-.47-1.58-.56-2.34-.35-4.6.95-6.09,2.67-1.19,1.64-2,3.54-2.76,5.38-1.41,3.89-2.74,7.81-4.15,11.69-2.3,6.3-4.55,12.62-7.17,18.79-.22.38-.26.86-.54,1.21-.24.1-.39.22-.25.5-.33.89-1.07,1.51-1.68,2.21-1.93.48-3.86.97-5.79,1.45-.48,2.68-.97,5.35-1.45,8.03-1.5,1.29-3.01,2.57-4.5,3.87-3.22,2.81-6.47,5.55-9.56,8.5-1.08.89-1.84,2.29-1.61,3.72.09,1,.87,1.87,1.87,2.02-.14-.26-.23-.55-.28-.85-.2-1.32.75-2.45,1.65-3.29,4.48-4.21,9.2-8.16,13.85-12.18,3.79,1.67,7.57,3.34,11.36,5.01-3.15,2.67-6.4,5.22-9.87,7.45-3.27,2.15-6.82,3.92-10.57,5.06-2.43.73-4.96,1.37-7.52,1.28-1.32-.07-2.83-.3-3.66-1.46-1.66-2.79-2.66-5.96-2.99-9.19.17-.32.55-.56.8-.84,3.34-2.92,6.9-5.58,10.27-8.46,3.93-3.36,7.85-6.86,10.69-11.23,1.98-3.19,3.47-6.69,4.78-10.2,2.41-6.48,4.13-13.19,6.15-19.81,1.13-3.64,2.29-7.37,4.54-10.51,1.58-2.3,4.09-4.07,6.91-4.31,1.43-.03,2.83.37,4.21.69h0ZM907.58,210.48c.26-.05.52-.09.78-.14-1.42,1.94-2.7,3.99-3.62,6.22-1.63,4.14-2.8,8.42-4.08,12.69-1.82,6.06-3.55,12.17-6.17,17.94-1,2.28-2.24,4.46-3.86,6.36-4.98,5.84-11.17,10.46-17.09,15.28-.17-2.92-.22-5.89.38-8.76.53-2.7,1.72-5.32,3.72-7.26,2.25-2.24,5.38-3.34,8.49-3.72,1.41-.1,2.86-.38,4.04-1.23,1.74-1.25,2.88-3.24,3.45-5.25.62-1.99.33-4.09.02-6.11-.71-5.1-.91-10.42.67-15.38.8-2.62,2.05-5.23,4.21-7,2.54-2.16,5.83-3.16,9.07-3.66h0ZM885.01,243.12c1.31.37,2.53.97,3.8,1.46-1.66.23-3.3.41-4.93.75-3.72.71-7.41,2.51-9.88,5.48-1.88,2.14-2.91,4.8-3.85,7.46-.15-.68-.3-1.36-.46-2.03-.65-2.47.21-5.09,1.69-7.09,1.49-1.99,3.43-3.65,5.58-4.9,2.39-1.44,5.36-1.92,8.05-1.13h0ZM899.16,258.35c.02-.14.05-.27.07-.41,1.9.85,3.8,1.7,5.69,2.56,1.34,2.92,2.67,5.85,3.78,8.87-3.57-1.55-7.14-3.09-10.71-4.63.38-2.13.77-4.25,1.15-6.38h0Z" style="fill:#000; stroke-width:0px;"/></g><polygon points="861.32 105.63 860.74 107.62 857.82 106.44 856.4 109.88 861.32 115.61 865.74 109.62 861.32 105.63" style="fill:#000; stroke-width:0px;"/></svg>