<?xml version="1.0" encoding="UTF-8"?><svg id="b" xmlns="http://www.w3.org/2000/svg" viewBox="0 0 355 296.07"><g id="c"><path d="M287.83,49.93c42.34,0,58.17,18.79,58.17,47.54v70.55c0,28.76-15.83,47.54-58.17,47.54h-48.28v80.52h-69.25V49.93h117.53ZM276.75,106.29c0-5.75-3.17-8.44-9.89-8.44h-27.31v69.78h27.31c6.73,0,9.89-2.68,9.89-8.43v-52.91Z" style="fill:#fff; stroke-width:0px;"/><path d="M116.35,49.93c42.34,0,58.17,18.79,58.17,47.54v31.44c0,19.94-3.56,35.27-19,43.32,15.43,6.52,19,19.94,19,39.49v36.81c0,28.76-15.83,47.54-58.17,47.54H0V49.93h116.35ZM106.45,102.45c0-5.75-3.17-8.44-9.89-8.44h-28.49v56.74h28.49c6.73,0,9.89-2.68,9.89-8.44v-39.87ZM106.45,203.29c0-5.75-3.17-8.43-9.89-8.43h-28.49v57.13h28.49c6.73,0,9.89-2.68,9.89-8.43v-40.26Z" style="fill:#fff; stroke-width:0px;"/><path d="M348.4,41.3l-3.54-9.18c-1.02-2.66-.86-5.35.49-8.06-2.84-1.16-4.77-3.07-5.8-5.73l-3.53-9.18c-1.08-2.81-3.24-3.77-6.47-2.87l-1.77-4.61c6.51-1.59,10.81.32,12.9,5.75l3.54,9.18c1.18,3.08,3.2,4.08,6.06,3.02l.42-.15,1.76,4.57-.42.15c-2.85,1.06-3.69,3.13-2.51,6.2l3.54,9.18c2.1,5.45.16,9.68-5.8,12.69l-1.77-4.61c3.05-1.39,4.02-3.51,2.92-6.35Z" style="fill:#fff; stroke-width:0px;"/><path d="M344.41,48.05l1.77,4.61c.12.3.35.54.66.65.29.11.61.1.89-.03.02,0,.03-.02.05-.02,8.14-4.12,7.95-9.94,6.35-14.09l-3.53-9.18c-1.14-2.96.08-3.98,1.42-4.58.13-.06.27-.12.42-.17l.42-.15c.28-.1.51-.32.64-.59.13-.27.14-.58.03-.86l-1.76-4.57c-.22-.58-.88-.87-1.47-.65l-.42.15c-1.12.42-2.02.45-2.73.09-.74-.37-1.37-1.2-1.85-2.46l-3.54-9.18c-1.59-4.14-5.36-8.62-14.25-6.44-.32.08-.59.28-.74.57-.15.28-.17.62-.06.92l1.78,4.61c.21.55.81.84,1.38.68,2.65-.74,4.22-.07,5.09,2.19l3.54,9.18c1,2.6,2.81,4.58,5.37,5.89-1.04,2.65-1.07,5.3-.06,7.91l3.54,9.18c.88,2.28.16,3.8-2.34,4.94-.54.25-.8.86-.59,1.41ZM347.85,50.65l-.95-2.47c2.83-1.66,3.75-4.22,2.57-7.28l-3.54-9.18c-.92-2.38-.77-4.73.45-7.18.14-.28.15-.6.04-.89-.11-.29-.34-.52-.63-.64-2.56-1.05-4.25-2.71-5.17-5.09l-3.53-9.18c-1.17-3.03-3.57-4.35-6.83-3.78l-.95-2.48c5.25-.95,8.54.76,10.3,5.33l3.53,9.18c.69,1.8,1.69,3.03,2.95,3.67,1.13.57,2.45.64,3.91.23l.97,2.52c-1.74.81-4.28,2.82-2.53,7.38l3.54,9.18c1.76,4.58.45,8-4.13,10.69Z" style="fill:#fff; stroke-width:0px;"/><path d="M302.95,37.17c2.85-1.06,3.69-3.12,2.51-6.2l-3.53-9.18c-2.1-5.45-.16-9.67,5.8-12.69l1.78,4.61c-3.05,1.39-4.02,3.51-2.92,6.35l3.54,9.18c1.02,2.66.86,5.35-.49,8.06,2.84,1.16,4.77,3.07,5.8,5.73l3.54,9.18c1.08,2.82,3.24,3.77,6.47,2.87l1.77,4.61c-6.51,1.59-10.81-.32-12.9-5.75l-3.53-9.18c-1.18-3.08-3.2-4.08-6.06-3.02l-.42.16-1.76-4.57.42-.15Z" style="fill:#fff; stroke-width:0px;"/><path d="M301.46,37.72l1.76,4.57c.11.28.32.5.6.63.28.12.59.13.88.03l.42-.16c1.12-.41,2.02-.44,2.73-.09.74.37,1.36,1.2,1.85,2.46l3.53,9.18c1.59,4.14,5.36,8.62,14.25,6.44.07-.02.14-.04.2-.07.23-.1.42-.28.53-.5.15-.28.17-.62.06-.92l-1.77-4.61c-.21-.54-.81-.84-1.38-.68-2.65.74-4.22.07-5.09-2.19l-3.54-9.18c-1-2.6-2.81-4.58-5.37-5.89,1.04-2.65,1.07-5.3.06-7.91l-3.54-9.18c-.88-2.28-.16-3.8,2.34-4.94.54-.25.8-.86.59-1.41l-1.77-4.61c-.12-.3-.36-.54-.66-.65-.3-.11-.64-.09-.93.05-8.14,4.12-7.95,9.93-6.35,14.09l3.54,9.18c1.14,2.96-.08,3.98-1.42,4.58-.13.06-.27.12-.42.17l-.42.15c-.29.1-.51.32-.64.59-.13.27-.14.58-.03.86ZM304.96,40.48l-.97-2.52c1.74-.81,4.28-2.82,2.53-7.38l-3.54-9.18c-1.76-4.58-.45-8,4.13-10.69l.95,2.47c-2.83,1.66-3.74,4.21-2.57,7.28l3.53,9.18c.92,2.38.77,4.72-.44,7.17-.14.28-.15.6-.04.89.11.29.34.52.63.64,2.56,1.05,4.25,2.71,5.17,5.09l3.53,9.18c1.17,3.03,3.57,4.35,6.83,3.78l.95,2.48c-5.25.95-8.54-.77-10.3-5.33l-3.54-9.18c-.69-1.8-1.69-3.03-2.95-3.67-1.13-.57-2.45-.64-3.91-.23Z" style="fill:#fff; stroke-width:0px;"/></g></svg>