<?xml version="1.0" encoding="UTF-8"?><svg id="a" xmlns="http://www.w3.org/2000/svg" viewBox="0 0 257.14 339.02"><path d="M173.63,50.69c41.38,0,56.86,21.19,56.86,53.63v35.46c0,22.49-3.48,39.79-18.57,48.87,15.08,7.35,18.57,22.49,18.57,44.55v41.52c0,32.44-15.47,53.63-56.86,53.63H59.92s0-277.65,0-277.65h113.71ZM163.96,109.94c0-6.49-3.09-9.52-9.67-9.52h-27.85v64.01s27.85,0,27.85,0c6.57,0,9.67-3.03,9.67-9.52v-44.98ZM163.96,223.68c0-6.49-3.09-9.51-9.67-9.51h-27.85v64.44s27.85,0,27.85,0c6.57,0,9.67-3.03,9.67-9.51v-45.41Z" style="fill:#fff; stroke-width:0px;"/><path d="M241.79,43.06l2.21-8.15c.64-2.36,2.29-4.18,4.95-5.45-1.72-2.17-2.26-4.43-1.62-6.79l2.21-8.15c.68-2.5-.59-4.19-3.8-5.09l1.11-4.09c6.34,1.96,8.86,5.36,7.56,10.17l-2.21,8.15c-.74,2.73.38,4.39,3.37,5l.43.09-1.1,4.06-.44-.09c-2.98-.61-4.85.45-5.59,3.18l-2.21,8.15c-1.31,4.83-5.31,6.89-12,6.19l1.11-4.09c3.33.46,5.34-.57,6.02-3.09Z" style="fill:#fff; stroke-width:0px;"/><path d="M234.65,45.93l-1.11,4.09c-.07.27,0,.55.18.77.18.21.45.36.76.4.02,0,.03,0,.05,0,9.13.96,12.24-3.23,13.24-6.92l2.21-8.15c.71-2.62,2.3-2.76,3.77-2.55.14.02.29.05.44.08l.43.09c.29.06.61.02.86-.11.26-.13.44-.34.51-.59l1.1-4.05c.14-.51-.25-1.03-.86-1.16l-.44-.09c-1.17-.24-1.94-.64-2.34-1.23-.41-.61-.47-1.49-.17-2.61l2.21-8.15c1-3.67.37-8.62-8.29-11.3-.31-.1-.65-.08-.93.05-.29.13-.49.35-.56.62l-1.11,4.09c-.13.48.2.98.77,1.14,2.64.74,3.57,1.96,3.03,3.95l-2.21,8.15c-.63,2.31-.23,4.56,1.18,6.7-2.36,1.37-3.88,3.23-4.5,5.54l-2.21,8.15c-.55,2.02-2.01,2.75-4.74,2.37-.59-.08-1.15.23-1.29.72ZM236.07,49.4l.6-2.2c3.31.17,5.51-1.19,6.24-3.91l2.21-8.15c.57-2.11,2.02-3.69,4.41-4.84.27-.13.47-.35.53-.61.07-.26,0-.53-.17-.75-1.55-1.95-2.03-3.93-1.46-6.04l2.21-8.15c.73-2.69-.54-4.76-3.58-5.9l.6-2.2c4.93,1.82,6.71,4.59,5.62,8.64l-2.21,8.15c-.43,1.6-.3,2.94.41,3.98.63.94,1.69,1.61,3.15,2.02l-.61,2.24c-1.91-.25-5.17-.04-6.27,4l-2.21,8.15c-1.1,4.06-4.12,5.85-9.47,5.57Z" style="fill:#fff; stroke-width:0px;"/><path d="M206.09,18.61c2.98.61,4.84-.45,5.59-3.18l2.21-8.15c1.31-4.83,5.31-6.89,12-6.19l-1.11,4.09c-3.33-.46-5.34.57-6.02,3.09l-2.21,8.15c-.64,2.36-2.29,4.18-4.95,5.45,1.72,2.17,2.26,4.43,1.62,6.79l-2.21,8.15c-.68,2.5.59,4.19,3.8,5.09l-1.11,4.09c-6.34-1.96-8.86-5.36-7.56-10.17l2.21-8.15c.74-2.73-.38-4.39-3.37-5l-.44-.09,1.1-4.06.44.09Z" style="fill:#fff; stroke-width:0px;"/><path d="M204.54,18.29l-1.1,4.06c-.07.25-.01.51.15.73.16.22.42.37.72.43l.44.09c1.17.24,1.94.64,2.33,1.23.41.61.47,1.49.17,2.61l-2.21,8.15c-1,3.67-.37,8.62,8.29,11.3.07.02.14.04.21.05.25.04.5,0,.73-.1.29-.13.49-.35.56-.62l1.11-4.09c.13-.48-.2-.98-.77-1.14-2.64-.74-3.57-1.96-3.03-3.95l2.21-8.15c.63-2.31.23-4.56-1.18-6.7,2.36-1.37,3.88-3.23,4.5-5.54l2.21-8.15c.55-2.02,2.01-2.75,4.73-2.37.59.08,1.15-.23,1.29-.72l1.11-4.09c.07-.27,0-.55-.19-.77-.19-.22-.49-.37-.81-.41-9.13-.96-12.24,3.23-13.24,6.91l-2.21,8.15c-.71,2.62-2.3,2.76-3.77,2.55-.15-.02-.29-.05-.45-.08l-.44-.09c-.3-.07-.61-.02-.86.11-.26.13-.44.34-.51.59ZM205.92,21.89l.61-2.24c1.91.25,5.17.04,6.27-4l2.21-8.15c1.1-4.06,4.12-5.85,9.47-5.57l-.6,2.19c-3.31-.17-5.5,1.19-6.24,3.91l-2.21,8.15c-.57,2.11-2.01,3.69-4.41,4.84-.27.13-.47.35-.54.61-.07.26,0,.53.17.75,1.55,1.95,2.03,3.93,1.46,6.04l-2.21,8.15c-.73,2.69.54,4.76,3.58,5.9l-.6,2.2c-4.93-1.82-6.71-4.59-5.61-8.64l2.21-8.15c.43-1.6.3-2.94-.41-3.98-.63-.94-1.69-1.61-3.15-2.02Z" style="fill:#fff; stroke-width:0px;"/><path id="b" d="M145.02,326.39c0-6.36-32.46-11.51-72.51-11.51h0c-40.05,0-72.51,5.15-72.51,11.51s32.46,11.51,72.51,11.51c40.05,0,72.51-5.15,72.51-11.51h0Z" style="fill:#fff; stroke-width:0px;"/><g id="c"><path id="d" d="M83.72,288.15h0c1.33-.03,2.62.61,3.59,1.58.12.09.23.29.35.09.77-.73,1.7-1.3,2.73-1.45.2-.02.45-.03.62-.04.83-.04,1.63,0,2.45.05.66.05,1.38.1,2.07.17.85.11,1.78.09,2.51.63,1.53,1.67,2.61,3.78,3.32,5.99.8,2.44,1.06,5.06.9,7.64-.2,2.89-.8,5.75-1.8,8.44-1.1.29-2.18.57-3.28.86.13.49.25.99.37,1.48.31,1.35.64,2.72.72,4.12.05.34-.04.7-.18,1-.75,1.55-1.77,2.94-2.95,4.14-2.17,2.23-4.87,3.8-7.72,4.75-3.41,1.17-7.08,1.47-10.62.86-.68-.12-1.39-.27-2.09-.47-2.26-.65-4.49-1.56-6.4-3.04-.44-.23-.69-.72-.81-1.2-.03-.14-.05-.34-.07-.44-.12-.97-.17-1.94-.23-2.92-.03-1.25-.14-2.54.17-3.76.27-.92,1.03-1.53,1.77-2,.1-.1.29-.12.34-.27.5-2.35,1.88-4.41,3.67-5.83,1.69-1.32,3.7-2.17,5.78-2.36.93-1.1,2.17-1.8,3.35-2.54-.13-.09-.26-.17-.39-.26-.84-.5-1.61-1.13-2.2-1.94-.04-.08-.29-.29-.07-.23-.14-.23-.29-.46-.43-.69-.75-1.13-1.24-2.46-1.37-3.84-.27-2.42.49-4.99,2.17-6.66.96-1.12,2.31-1.89,3.74-1.89h0Z" style="fill:#ac8f7c; stroke-width:0px;"/><path id="e" d="M83.78,289.16h0c-1.03-.01-1.97.16-2.36.23-.88.14-1.77,1.63-1.65,2.57.13.94,3.18,1.25,4.02,1.71.84.46.27-.89,1.09-1.92.82-1.03,2.32-.91,2.32-.91-.62-1.33-2.1-1.66-3.43-1.68h0ZM97.37,289.86c-.35-.16-.97-.22-1.71-.22-2.24,0-5.54.54-5.54.54.31-.06,3.35,1.08,4.69,2.56,1.33,1.48,1.61,2.38,1.61,2.38,0,0,3.64.34,3.67.09.02-.25-1.33-4.72-2.72-5.36h0ZM90.88,292.07c-1.08-.47-2.3-.66-2.3-.66l1.08,3.38c.18,0,2.78,0,3.65.14s1.73.52,1.73.52c0,0-3.09-2.91-4.16-3.38h0ZM85.53,295.97h0c-.72-.06-4.6,2.35-4.6,2.35,0,0,.31,2.33,2.78,1.89,2.47-.44,2.4-4,1.88-4.24-.02-.01-.06-.01-.06-.01h0ZM78.98,307.57c-3.23.01-5.84,1.45-5.84,3.21s2.64,3.21,5.89,3.21c3.25,0,5.89-1.43,5.89-3.21s-2.64-3.21-5.89-3.21h-.05ZM93.06,310.1h0s-2.07,6.37-5.01,7.96-7.82,2.14-12.03.82c-4.2-1.33-6.84-3.36-6.84-3.36l-.69,2.33c.21.36,6.81,5.33,15.57,3.4,8.76-1.94,9.69-8.04,9.82-9.22.13-1.18-.81-1.94-.81-1.94h0Z" style="fill:#fff; stroke-width:0px;"/><path id="f" d="M83.59,287.59h0c-1.51.04-2.92.85-3.94,2.04-1.45,1.45-2.37,3.66-2.37,6.09,0,1.82.52,3.53,1.39,4.87h-.08c.63,1.26,1.59,2.31,2.74,3.03-.94.58-1.87,1.2-2.62,2.04-1.88.2-3.67.92-5.25,2-2.12,1.46-3.8,3.74-4.4,6.4-.93.57-1.9,1.35-2.18,2.53-.27,1.22-.18,2.48-.15,3.72.06,1.15.12,2.33.29,3.48.14.63.45,1.27,1,1.58,1.84,1.43,3.96,2.34,6.12,3,3.31.98,6.83,1.19,10.23.56.96-.18,1.95-.42,2.89-.73,1.07-.34,2.14-.78,3.15-1.28,2.98-1.51,5.67-3.81,7.48-6.81.36-.64.79-1.28.88-2.04-.03-1.49-.37-2.92-.69-4.37-.09-.38-.21-.82-.31-1.22,1.01-.27,2.03-.53,3.04-.8,1-2.61,1.63-5.43,1.89-8.28.19-2.32.08-4.74-.47-6.99-.7-2.82-1.94-5.53-3.85-7.63-.86-.71-2-.66-3.02-.8-1.67-.14-3.33-.31-5.01-.16-1.06.16-2.01.67-2.82,1.4-1.08-1.05-2.5-1.7-3.96-1.63h.01ZM83.6,289.84h0c1.81,0,3.43,1.41,4.16,3.49.04.11.07.23.11.34,0,.03.02.06.03.09.06.22.11.44.14.65.08.47.12.95.12,1.43-.05,3.29-2.11,5.79-4.55,5.79s-4.56-2.56-4.56-5.91c0-2.34,1.03-4.28,2.48-5.25h.06c.09-.08.19-.14.29-.22.53-.29,1.12-.44,1.72-.44h0ZM91.04,290.41h0c1.83.01,3.68.08,5.5.39.56.22.87.82,1.22,1.3,1.89,2.92,2.74,6.57,2.56,10.12-.11,2.48-.62,4.93-1.39,7.26-1.39.36-2.78.72-4.17,1.09.6,2.28,1.22,4.57,1.53,6.92.05.47-.28.85-.46,1.25-1.5,2.7-3.96,4.65-6.59,5.91-2.48,1.18-5.17,1.86-7.88,2.01-3.77.17-7.58-.72-10.9-2.68-.35-.22-.7-.46-1.03-.72-.28-1.28-.28-2.6-.31-3.9,0-.95.05-1.89.09-2.83.39.23.52.31,1.08.56,2.36,1.45,4.95,2.48,7.62,2.94,2.42.42,4.92.38,7.3-.33,1.91-.57,3.8-1.69,5.21-3.29,1.47-1.63,2.41-3.76,2.81-5.99.02-.33.35-.47.52-.67,1.58-1.48,2.64-3.63,2.76-5.9.11-2.34.11-4.73-.58-6.98-.62-2.13-2.09-3.96-3.98-4.89-.7-.37-1.49-.61-2.26-.82-.21-.14-.06-.44.15-.46.4-.14.79-.32,1.22-.29h-.02ZM89.43,292.23h0c.11.03.22.06.33.09h0c1.43.34,2.84,1.04,3.82,2.26,1.29,1.61,1.77,3.78,1.89,5.86.06,1.2.07,2.42-.03,3.63-.23,2.18-1.44,4.14-3.03,5.46-.16.14-.07.42-.15.62-.41,2.64-1.73,5.16-3.78,6.7-2.25,1.73-5.07,2.37-7.8,2.32-3.5-.06-6.92-1.26-9.96-3.08-.27-.11.25-.18.36-.27.26-.07.13-.41.21-.62.26-1.69,1.16-3.21,2.3-4.38,1.39-1.37,3.19-2.22,5.05-2.5,2.3-.29,4.61.62,6.48,2.03.94.69,1.79,1.5,2.52,2.43.08-1.42-.28-2.85-1.1-3.99-.99-1.38-2.48-2.17-3.98-2.74-.39-.09.13-.18.26-.27,1.86-.88,4.02-.97,5.95-.3.97.32,1.88.82,2.78,1.32-.24-1.32-1-2.57-2.07-3.33-.48-.38-1.05-.6-1.6-.82-.23-.24.06-.54.23-.7,1.42-1.85,2.07-4.3,1.92-6.68-.04-1.01-.3-2.05-.58-3.04h0Z" style="fill:#000; stroke-width:0px;"/><path id="g" d="M59.8,261.5c-.42-.19-.86-.29-1.32-.29-1.39-.01-2.64.87-3.18,2.25l-8.12,20.59c-.74,1.89.07,4.06,1.81,4.86.13.05.25.1.38.14l1.77.56,4.48-8.04,6-15.2c.74-1.89-.07-4.06-1.81-4.86h0ZM82.82,291.91l-26.41-8.35-3.77,6.53,28.25,8.93c1.82.57,3.73-.55,4.26-2.52h0c.53-1.96-.51-4.02-2.33-4.6h0Z" style="fill:#826c4a; stroke-width:0px;"/><path id="h" d="M66.76,263.4l5.33,3.52s-6.67,11.79-13.47,23.67c-3.39,5.95-6.82,11.92-9.46,16.46-1.32,2.27-2.44,4.19-3.27,5.58-.42.7-.76,1.25-1.03,1.68-.14.22-.25.39-.37.57s.05.15-.69.81l-3.97-5.21c-.69.61-.41.44-.37.39.04-.05.12-.19.23-.36.22-.34.54-.87.94-1.55.8-1.34,1.92-3.24,3.23-5.5,2.62-4.52,6.04-10.48,9.44-16.42,6.78-11.87,13.46-23.65,13.46-23.65h0Z" style="fill:#826c4a; stroke-width:0px;"/><path id="i" d="M41.69,133.48h0l-.09.09h0c-1.2,1.99-1.31,4.47-1.63,6.75-.64,6.3-.5,12.7-.04,19.03-3.15,2.3-6.31,4.6-9.47,6.9-3.11-1.39-6.69.92-7.86,4.13-.83,2.01-.68,4.39.32,6.3-1.82,1.79-2.08,5-.61,7.13,1.92,3.24,4.32,6.55,7.85,7.79,1.35.54,2.77.81,4.18,1.07.03,1.44.52,3.04,1.88,3.6,2.78,1.22,5.98-.27,7.97-2.46,1.39-1.51,2.46-4.13,1.11-6.04-1.11-1.2-2.69-1.73-4-2.63-1.26-.5.58-.39,1.05-.56,2.03-.3,4.33-.38,5.84-2.09,2.26-2.24,2.08-6.35.04-8.7-1.08-1.42-2.71-2.13-4.32-2.55-.2-3.35-.4-6.7-.6-10.06,5.65-4.11,11.28-8.4,16.21-13.54,1.3-1.55,2.95-3,3.52-5.07-.46.08-1.27.89-1.86,1.25-6.04,4.42-12.08,8.83-18.12,13.24-.46-7.86-.92-15.71-1.37-23.57h0ZM36.76,163.86c1.14-.6,1.93-.75,2.46-.75.54,0,.83.16.98.19.29.06,1.1.86,1.67,1.66.56.8.58,3.29.44,3.57-.14.29-3.88,1.15-4.1,1.24-.23.09-1.22-1.22-2.79-1.86-1.57-.65-2.22-.19-2.22-.19l-1.07-1.2s2.35-1.47,4.62-2.66h0Z" style="fill:#fff; stroke-width:0px;"/><path id="j" d="M34.47,167.61c-.09-.03-.21-.04-.33-.04-.39,0-.85.06-.85.34,0,.28.53.88.39,2.22-.14,1.35-.4,1.45-.78,1.45s-1.22-.51-1.22-.51c0,0-.6-.06-1.71,1.6s-1.26,3.72-.92,4.03c.33.31,1.78,1.56,1.78,1.56,0,0-1.53,1.06-3.07,1.32s-3.03.14-3.03.14c.46,1.02.69,1.88,1.11,2.03.43.16,1.99,1.23,1.99,1.23,0,0,2.64.44,2.85.41s2.18-.3,2.18-.3l.23.27s1.71-.48,2.86.96c1.14,1.44,3.13,2.19,3.13,2.19,0,0,1.11.6,1.73,2.17s.33,2.47.33,2.47c0,0,1.92,3.15,2.15,3.15s1.93.44,2.39-1.76.23-4.6-.3-5.07-1.95-1.7-1.95-1.7c0,0-1.7-.92-2.41-1.58s-2.05-2.11-2.72-2.72-1.29-2.01-1.29-2.52-.48-2.14-.29-2.65,1-1.86,1.25-3.42c.25-1.56.14-2.77-.13-3.1-.27-.33-3.02-2.08-3.36-2.18v-.02ZM40.49,174.79c-1.29-2.23-.96-4.66-.96-4.66,0,0-.86,1.71-.92,2.32s.32,5.03.43,5.86,1.33,2.23,2.34,3.13c1.01.9,2.51.9,3.83.09s1.04-4.37,1.04-4.37c0,0-.27.47-1.51.83s-2.94-.98-4.23-3.2h0Z" style="fill:#999; stroke-width:0px;"/><path id="k" d="M41.19,189.98h0c1.13,0,2.17.65,2.73,1.71l8.41,16.05c-.17.7-.41,1.7-.6,2.73-.3,1.57.33,2.84.66,2.89,0,0,.56-3.2,1.95-4.68.12-.13.22-.24.31-.37l18.58-9.33h0c1.55-.78,3.41-.05,4.13,1.63.72,1.68.05,3.68-1.51,4.46l-22.78,11.45c-1.47.74-3.22.14-4.02-1.39l-10.55-20.14c-.84-1.61-.32-3.66,1.18-4.57.46-.29.98-.44,1.51-.44h0Z" style="fill:#826c4a; stroke-width:0px;"/><path id="l" d="M42.08,156.21l-1.18-22.07s-.36.39-1.16,2.58-.15,21.98-.15,21.98c0,0,.44.02.74.3s1.31,3,1.56,3.58.58,1.08.58,1.08l-.27-5.23s-.84.33-1.58-.11c-.75-.44-.13-1.83-.12-1.91s.33-.39.87-.39.71.18.71.18h-.01ZM63.53,142.9l-19.52,14.31.09,3.76s6.68-4.8,11.28-8.95c4.6-4.16,8.15-9.12,8.15-9.12Z" style="fill:#999; stroke-width:0px;"/><path id="m" d="M41.85,132h0c-.31-.02-.68.1-1,.36-.31.27-.58.65-.82,1.18-.5,1.08-.95,2.81-1.31,5.79-.83,6.8-.5,15.21-.19,19.31-4.38,3.2-7.62,5.56-8.31,6.05-.16-.05-.31-.11-.48-.14-2.67-.58-5.58.75-7.38,3.38-1.77,2.57-2.15,5.92-1.02,8.53-.28.36-.54.77-.74,1.25-.95,2.27-.56,4.12-.23,5.23.16.52.43,1.02.84,1.74.42.72.97,1.6,1.62,2.5,1.3,1.81,2.97,3.74,4.87,4.82,2.05,1.16,4.07,1.66,5.43,1.89.07.64.25,1.26.56,1.84.84,1.52,2.4,2.29,4.07,2.4,1.66.11,3.5-.39,5.2-1.49,1.71-1.1,2.99-2.6,3.69-4.24.7-1.63.8-3.49-.03-5-.43-.77-1.05-1.35-1.77-1.75,1.97-.25,3.8-1.29,5.01-3.11,2.39-3.58,1.26-8.62-2.22-11.17-.78-.57-1.64-.95-2.51-1.2-.1-1.61-.24-4.01-.49-8.25,3.9-2.78,11.47-8.57,15.87-13.35,2.86-3.1,3.75-4.71,3.82-5.96.04-.63-.25-1.18-.57-1.42s-.66-.28-.66-.28c-.16-.02-.33.02-.46.12,0,0-9.64,7.04-18.44,13.47-.6-10.4-1.26-21.58-1.26-21.58,0-.17-.07-.34-.19-.47,0,0-.34-.42-.91-.45h-.02ZM41.65,133.69h0c.03.67.66,11.58,1.29,22.21l.33,5.69h0s.05.85.05.85h0c.23,3.89.37,6.37.47,7.93-.15-.21-.29-.41-.44-.62-.16-1.53-.38-3.28-.71-4.53-.27-1.03-.72-1.79-1.16-2.39-.01-.02-.01-.04-.03-.05-.61-1-1.51-3.81-1.51-3.81-.31-3.86-.66-12.67.17-19.43.36-2.9.81-4.52,1.18-5.33.15-.32.25-.42.35-.52h.01ZM62.95,142.64h0c-.09.52-.77,2.05-3.38,4.87-3.99,4.32-10.98,9.77-15,12.69l-.23-3.98c8.82-6.45,18.1-13.23,18.6-13.59h0ZM42.02,156.15c.24.22.38.54.38.89,0,.63-.44,1.14-1,1.14s-1-.51-1-1.14c0-.33.13-.65.35-.86-.44.28-.72.81-.72,1.38,0,.87.62,1.57,1.37,1.57s1.37-.7,1.37-1.57c0-.6-.3-1.15-.76-1.41h0ZM39.04,160.1h0c.15.75.44,1.63.64,2.24-.17,0-.34,0-.52,0-.68,0-1.46.11-2.32.48-1.6.69-3.88,2.22-5.18,3.1-.39.27-.43.88-.07,1.2.73.66,1.23,1.52,1.51,2.47-.11-.09-.3-.24-.38-.31-.33-.28-.7-.49-1.12-.66-.21-.32-.45-.6-.74-.84-.72-.6-1.6-.87-2.49-.85-.3,0-.6.05-.9.12-1.19.29-2.34,1.1-3.21,2.37-1.75,2.56-1.56,5.9.35,7.51,1.16.97,2.71,1.1,4.14.46.21.2.43.42.7.64.03.02.07.05.09.07-1.83.99-3.94.96-5.52-.37-2.38-2-2.54-5.99-.53-8.92,1.51-2.2,3.93-3.25,6-2.8.21.04.42.11.64.19.21.08.43.05.61-.08.58-.41,4-2.91,8.29-6.04h0ZM39.36,163.81h0c.37,0,.74.04,1.1.06.33.48.64,1.01.84,1.75.15.56.28,1.31.39,2.11-.04-.04-.08-.07-.13-.11-.28-.22-.67-.42-1.12-.44-.15,0-.31.01-.46.06-.68.2-1.26.67-1.77,1.36-.25-.26-.51-.52-.81-.75-.66-.53-1.49-1.01-2.42-1.06-.31-.02-.63.01-.96.11-.21.06-.41.13-.59.21-.1-.14-.2-.29-.31-.42,1.31-.88,3.08-2.01,4.23-2.51.75-.32,1.4-.38,2.02-.37h0ZM34.74,169.14h0c.35-.03.86.17,1.39.6.41.33.78.77,1.06,1.13-.14.6-.21,1.25-.17,1.96,0,.07.02.14.02.21-.06.09-.12.18-.17.27-.09-.28-.2-.56-.34-.83l-.11-.22-.19-.15s-.7-.57-1.51-1.21c-.04-.57-.13-1.12-.29-1.66.05-.01.11-.04.17-.06.04,0,.09-.02.14-.02h.01ZM40.43,169.65h0c.12.11.27.25.46.5.48.6,1.06,1.51,1.67,2.35,1.12,1.55,2.37,3.54,2.83,4.79.13.33.14,1.22-.13,2.26-.17.62-.43,1.3-.74,1.96-.99.16-2.09-.07-3.07-.8-.83-.62-1.37-1.4-1.64-2.22.22-.05.53-.2.73-.49.21-.31.23-.65.22-.85-.02-.41-.12-.55-.2-.72-.15-.34-.34-.64-.53-1.02-.39-.76-.8-1.73-.86-2.74-.05-1.04.21-1.8.56-2.34.29-.45.58-.61.71-.7h0ZM29.29,170.51h0c.17,0,.35,0,.52.03h0c.7.09,1.35.39,1.57.57.9.75,2.87,2.32,3.23,2.61.37.82.4,1.62.13,2.21-.28.62-.8,1.07-1.69,1.14-.88.06-1.62-.35-2.28-.9-.33-.27-.63-.58-.9-.85-.27-.27-.37-.52-.98-.77-.46-.18-.74-.13-1.01-.11-.27.01-.51.03-.74.01-.46-.03-.81-.11-1.26-.61-.12-.14-.13-.17-.11-.36.01-.19.11-.51.32-.86.41-.7,1.23-1.47,1.78-1.78.38-.21.88-.32,1.41-.32h0ZM44.58,171.52h0c.8.21,1.59.57,2.3,1.09,2.9,2.13,3.79,6.2,1.88,9.06-1.91,2.87-5.81,3.37-8.71,1.24-2.46-1.81-3.47-5.03-2.53-7.71.05.14.11.29.17.42l.59,1.1c-.21,1.91.64,3.95,2.38,5.23,2.46,1.81,5.69,1.35,7.23-.96,1.53-2.29.84-5.61-1.61-7.41-.18-.14-.37-.25-.55-.36-.37-.59-.76-1.15-1.14-1.7h-.01ZM22.7,178.47h0c.15.15.31.3.48.44,2.28,1.91,5.33,1.72,7.73.05.35.16.74.3,1.15.38.34,1.85-1.32,3.36-2.54,3.09-1.97-.22-4.8-1.89-4.8-1.89-.19.09-.3.58.74,1.55.29.27.82.63,1.47.99-.16.09-.4.18-.76.16-.76-.05-1.58-.47-1.58-.47-.22-.07-.4.02-.29.16s.63.97,2.07,1.2c1,.15,1.79-.11,2.15-.32,1.38.52,2.88.78,3.8.16.1-.06.19-.14.27-.22-.13.67-.19,1.36-.23,2.05-.05,1.39.48,1.02.76.14,1.14-3.22,2.01-3.6,3.37-5.35.59,1.38,1.54,2.62,2.79,3.54.52.39,1.09.7,1.67.95-1.19.19-2.4.66-3.57,1.41-1.71,1.1-2.99,2.6-3.69,4.24-.11.28-.21.56-.29.85-1.18-.21-2.91-.65-4.66-1.64-1.39-.79-2.97-2.53-4.17-4.19-.6-.84-1.12-1.65-1.49-2.3-.38-.65-.63-1.24-.63-1.24-.31-.98-.57-1.84.14-3.53.03-.07.07-.14.11-.21h0ZM35.01,178.84h0c-.37.37-.67.8-.94,1.26.03-.35.05-.66.03-.86.32-.09.62-.23.91-.39h0ZM41.99,187.23h0c.15,0,.31,0,.45,0,.12.01.23.03.35.04l.03.06s.05-.04.06-.04c.94.16,1.61.6,1.98,1.26.42.76.42,1.76-.07,2.92s-1.49,2.37-2.86,3.25-2.84,1.26-4.01,1.18-1.99-.56-2.41-1.31-.42-1.76.07-2.92,1.49-2.37,2.86-3.25c1.2-.77,2.48-1.16,3.56-1.19h0Z" style="fill:#000; stroke-width:0px;"/><path id="n" d="M101.64,203.76h.09c.23,0,.46.04.69.09l27.6,6.57c.39.09.75.26,1.08.48,1.6,1.08,2.08,3.36,1.08,5.09l-11.75,20.21c-1,1.72-3.11,2.24-4.72,1.16-1.59-1.08-2.08-3.36-1.08-5.09l8.98-15.45c.62-.68,1.59-1.6,2.7-1.99,1.86-.66,1.96-1.79-.82-1.13-1.86.44-2.89,1.64-3.37,2.39l-21.19-5.05h0c-1.85-.44-3.01-2.41-2.6-4.4.35-1.68,1.71-2.87,3.3-2.9h0Z" style="fill:#826c4a; stroke-width:0px;"/><polygon points="126.91 211.49 128.07 214.16 123.61 216.83 102.77 211.49 126.91 211.49" style="fill:#826c4a; stroke-width:0px;"/><path id="o" d="M109.19,147.72h0c2.5,1.04,4.79,2.67,6.64,4.77,3.27,3.66,5.17,8.7,5.2,13.78v.57c-.02,1.06-.11,2.11-.29,3.16-.03.33-.19.65-.12.98,0,.42.3.71.46,1.07.66,1.27,1.1,2.81.66,4.24-.78,2.09-1.6,4.17-2.39,6.25-.33.75-.52,1.57-.98,2.24-.9,1.26-2.36,1.86-3.76,2.17-.31,0-.5.3-.74.48-9.22,24.02-18.46,48.04-27.69,72.06-.17.28-.09.6-.09.9.53,1.1.86,2.41.5,3.62-.52,1.42-1.08,2.82-1.61,4.23-.16.2-.27.44-.39.67,0,.64-.35,1.23-.83,1.58-1,.7-2.24.8-3.4.83-.28-.03-.54.05-.79.17-1.12,1.06-2.43,1.89-3.82,2.47-3.38,1.41-7.15,1.5-10.67.65-4.32-1.06-8.39-3.46-11.36-7.03-2.09-2.5-3.64-5.66-3.94-9.05.01-.31-.09-.58-.22-.85-.13-.14-.31-.33-.4-.44-.63-.74-1.24-1.54-1.57-2.49-.28-.75-.25-1.68.29-2.28.08-.22.17-.47.17-.72.48-1.31,1-2.62,1.5-3.93.43-1.23,1.51-2.03,2.62-2.44.29-.05.45-.31.66-.49,9.24-24.04,18.47-48.07,27.71-72.11.17-.29.05-.62.04-.93-.78-1.22-1.43-2.62-1.41-4.13-.02-.89.39-1.68.68-2.49.85-2.19,1.67-4.39,2.54-6.57.64-1.35,1.97-2.11,3.27-2.5.29-.12.63-.09.88-.29.26-.14.39-.4.54-.65,2.47-3.96,6.28-6.89,10.55-8.14,3.79-1.13,7.91-.91,11.57.64h-.02Z" style="fill:#fff; stroke-width:0px;"/><path id="p" d="M108.47,175.76l4.78,3.55-29.77,77.45-4.72-3.71,29.7-77.29h0Z" style="fill:#999; stroke-width:0px;"/><path id="q" d="M106.64,196.46l3.79-9.86c-10.39-.16-20.77-.33-31.16-.49l-3.79,9.86c10.38.16,20.77.33,31.15.49h0ZM93.65,230.23l3.79-9.86c-10.38-.16-20.77-.33-31.15-.49l-3.79,9.86c10.39.16,20.77.33,31.16.49h0ZM83.49,256.67l.97-2.52c-1.21-.02-2.42-.04-3.63-.06.88.75,1.79,1.62,2.66,2.58h0Z" style="fill:#0055d4; stroke-width:0px;"/><path id="r" d="M100.52,170.09h0c-.56-.24-1.11-.47-1.65-.67-4.38-.07-8.75-.14-13.13-.21l-3.79,9.86c10.35.16,20.7.33,31.05.49-1.16-1.2-2.54-2.6-4.66-4.56-2.36-2.18-5.2-3.77-7.82-4.91h0ZM100.14,213.35l3.79-9.86c-10.38-.16-20.77-.33-31.15-.49l-3.79,9.86c10.39.16,20.77.33,31.16.49h0ZM90.95,237.26c-10.38-.16-20.77-.33-31.15-.49l-3.79,9.86c10.38.16,20.77.33,31.15.49l3.79-9.86Z" style="fill:#d40000; stroke-width:0px;"/><path id="s" d="M111.29,149.83h0l-.07.14c.34.13.52.25.52.25,0,0-.15-.16-.44-.39h0ZM106.67,150.08h0c-1.63-.51-3.72-.88-6.17-.67-5.96.51-10.13,5.99-10.13,5.99l-.35.21,8.52.84s3.32-5.03,8.1-6.35h.03ZM96.83,158.99h0s-2.78-1.05-7.29-1c-1.48.02-2.74.24-3.77.52-.28.74-1.3,3.44-1.81,4.63.79-.14,1.66-.22,2.52-.16,2.74.19,7.89.77,7.89.77,0,0,.92-4.48,2.46-4.77h0ZM81.99,163.65c-.31-.06-.6-.13-.87-.21l-.25.62s.44-.19,1.12-.41h0ZM63.35,246.23h0s-6.44-2.15-9.75-.28c-.09.22-1.75,5.03-1.75,5.03,0,0,3.36-.09,4.4.24s4.2,1.02,4.2,1.02c0,0,.74-3.04,1.39-4.08s1.49-1.93,1.49-1.93h0ZM58.4,255.59l-5.75-.64s-.41,4.59,1.15,8.67c1.55,4.08,5.8,7.29,6.06,7.41.26.12,1.05.13.92-.11-.13-.24-2.97-3.43-3.19-7.8-.21-4.37.82-7.53.82-7.53h0Z" style="fill:#5f8dd3; stroke-width:0px;"/><path id="t" d="M111.53,155.34c-.37-2.7-1.89-5.26-1.89-5.26,0,0,.11,1.84-.56,4.82-.67,2.98-1.59,5.02-1.67,5.21l3.66,2.04s.83-4.12.46-6.81h0ZM111.03,165.73c-.41-.36-4.62-2.69-4.62-2.69l-2,4.65,4.04,2.9s.62-1.61,1.35-3.01c.73-1.41,1.64-1.5,1.23-1.86h0ZM97.84,165.96c.05-.04.17-.14.17-.14,0,0-7.98-2.64-12.52-2.19-4.54.45-6.37,3.34-5.93,4.99.44,1.65,1.75,2.58,1.75,2.58.66-.64,2.88-3.59,2.88-3.59,0,0,4.81.19,7.94.14,4.42,1.43,13.46,4.39,14.42,5.03,1.28.85,5.05-.12,4.66-.37-.27-.17-6.46-3.45-11.01-5.48-.87-.39-1.66-.71-2.36-.97h0ZM68.86,248.45h0c-.44-.2-.72-.31-.68-.23.15.31,1.17,2.31.41,4.09-.76,1.78-1.39,2.61-1.39,2.61l3.59,1.79,2.19-6.17s-2.79-1.48-4.12-2.09h0ZM69.07,260.32l-3.04-1.66s-.37,1.61-1.9,4.77c-1.53,3.15-3.12,5.38-3.36,5.81-.24.42.26.57.26.57,0,0,1.05-.59,3.61-3.15,2.56-2.56,4.43-6.33,4.43-6.33h0Z" style="fill:#999; stroke-width:0px;"/><path id="u" d="M119.91,159.62c-1.51-5.13-7.94-9.19-7.94-9.19,0,0,2.24,4.05,2.7,7.37.46,3.32-.24,7.05-.24,7.05,0,0,5.64,5.4,5.76,5.15s1.22-5.25-.29-10.38h0ZM118.4,171.86l-1.09-1.47s-1.08.07-1.71.52c-.62.44-1.44,2.82-1.52,3.03-.08.22,4.85,6.92,4.85,6.92,0,0,1.37-2.41,1.49-3.7.13-1.29-.85-3.37-.85-3.37l-1.18-1.93h0ZM78.97,253.65h0l-2.59,6.62s4.28,3.08,5.76,4.56c1.49,1.48,2.7,3.48,2.7,3.48,0,0,2.6-3.81,1.68-6.38-.92-2.57-7.56-8.27-7.56-8.27h0ZM75.53,263.35h0c-.86-.59-11.81,8.09-12.72,8.2,0,0-.7.93-.62,1.33s2.54,1.92,9.42,1.75c6.89-.17,9.62-5.85,9.32-6.85-.29-1-4.54-3.85-5.41-4.43h0Z" style="fill:#ac8f7c; stroke-width:0px;"/><path id="v" d="M61.91,245.25l6.98,3.13,30.08-78.3-6.98-3.13-30.08,78.3Z" style="fill:#fff; stroke-width:0px;"/><path id="w" d="M109.87,147.27h0c-8.73-3.91-18.64-.31-23.59,8.04-.46.11-.91.24-1.33.39-1.49.57-2.7,1.53-3.25,2.96l-2.84,7.38s-.02.04-.03.06c-.56,1.43-.33,3.06.36,4.62.23.52.52,1.03.85,1.56l-27.81,72.37c-.05.02-.11.04-.17.06-1.4.52-2.55,1.41-3.06,2.75,0,.02-.03.06-.03.06l-1.51,3.93c-.07.18-.09.38-.05.57-.19.23-.35.49-.46.78-.44,1.15-.05,2.41.71,3.59.38.6.87,1.21,1.45,1.83.14,2.27.82,4.54,1.95,6.64,2.05,3.82,5.58,7.15,10.08,9.17,4.5,2.01,9.18,2.35,13.14,1.23,2.19-.62,4.15-1.71,5.74-3.2.82,0,1.56-.04,2.22-.17,1.31-.26,2.41-.85,2.86-1.99.11-.29.17-.6.18-.9.15-.11.27-.27.34-.45l1.53-4c.52-1.35.29-2.86-.37-4.31-.02-.06-.05-.11-.07-.16l27.8-72.36c.58-.11,1.13-.26,1.63-.45,1.51-.57,2.73-1.55,3.28-2.99l.02-.06,2.84-7.38c.55-1.43.33-3.05-.37-4.61-.19-.42-.41-.83-.66-1.25,1.98-9.68-2.66-19.79-11.4-23.71h0ZM109.13,149.17h0c.46.21.9.43,1.33.67.76,1.15,1.75,2.98,2.33,5.38.74,3.05.21,6.15-.13,7.61-2.17-1.43-4.61-2.77-7.26-3.95-.07-.03-.13-.06-.2-.09h0c-5.42-2.4-10.65-3.7-14.84-3.83-.53-.02-1.04-.02-1.53,0,4.69-6.5,12.94-9.1,20.3-5.8h0ZM112.68,151.32h0c.7.55,1.36,1.15,1.97,1.81,1.02,1.71,2.16,3.96,2.52,6.01.53,3.02.21,5.84,0,7.11-.43-.38-.88-.76-1.35-1.14.23-1.35.5-4.12-.2-7.25-.55-2.44-1.87-4.86-2.94-6.55h0ZM118.36,158.99c1.22,3.03,1.69,6.4,1.3,9.78-.35-.4-.72-.81-1.12-1.21.17-1.43.48-5.07-.19-8.57ZM104.49,160.71h0c.06.03.13.06.19.09h0c5.27,2.36,9.7,5.38,12.55,8.26,1.42,1.44,2.44,2.85,2.99,4.06.54,1.22.6,2.17.32,2.91l-1.41,3.68s-.02-.04-.03-.06c-.27-.6-.6-1.2-1.01-1.81l1.55-3.99c-.33-.75-.76-1.46-1.24-2.14l-1.85,4.15c-.27-.3-.55-.61-.85-.91-.14-.15-.29-.29-.44-.44.23-.61,1.28-3.28,1.74-3.72.11-.11.25-.24.39-.36-1.24-1.42-2.59-2.53-3.51-3.23l-2.04,4.42c-2.62-1.94-5.76-3.79-9.26-5.36-5.45-2.44-10.73-3.76-14.96-3.9-2.11-.07-3.96.14-5.48.72-.02,0-.06.03-.06.03l1.41-3.68c.29-.74.94-1.35,2.11-1.8,1.16-.44,2.79-.67,4.72-.6,3.86.12,8.92,1.35,14.16,3.67h.01ZM101.8,168.18h0c5.27,2.36,9.7,5.38,12.54,8.27,1.42,1.45,2.44,2.86,2.98,4.08s.61,2.17.32,2.92c-.03.08-.07.16-.11.24-.33.62-.98,1.15-2.01,1.53-.03,0-.09.03-.09.03l.92-2.39c.09-.24.11-.5.06-.75-.02-.29-.09-.58-.19-.82h0c-1.24-2.7-3.41-4.5-5.31-6.11-.01-.01-.02-.02-.03-.03-3.19-2.51-6.69-4.4-10.25-5.98-.03-.01-.05-.03-.08-.04h0s-.03-.01-.03-.01h0c-4.38-1.79-9.18-3.39-14.21-3.26h-.08c-.98.1-2.62-.15-4.02,1.09-.15.13-.26.3-.33.49l-.92,2.39s-.02-.05-.03-.07c-.47-1.06-.58-1.91-.41-2.61.03-.09.05-.18.09-.27.29-.75.96-1.38,2.14-1.82s2.83-.67,4.78-.6c3.91.13,9.01,1.38,14.28,3.74h-.01ZM99.7,171.45h0c3.47,1.53,6.81,3.35,9.82,5.71,1.85,1.57,3.63,3.15,4.57,5.12l-28.94,75.33c-.46-.59-.99-1.17-1.57-1.76-2.9-2.9-7.22-5.79-12.33-8.08-.05-.02-.1-.04-.15-.06h0c-5.09-2.26-10-3.49-13.93-3.65-.78-.04-1.51-.02-2.21.04l28.94-75.31c.51-.3,1.37-.32,2.51-.42,4.52-.11,9.03,1.35,13.3,3.1h0ZM70.38,249.58h0l.14.06h0c1.24.56,2.43,1.15,3.57,1.77-.52,1.56-1.62,4.76-1.97,5.31-1.17-.6-2.38-1.2-3.64-1.76-4.34-1.94-8.56-3.34-12.13-4.08-2.53-.52-4.68-.74-6.42-.51l.81-2.11h0s.01-.03.01-.04h0c.25-.66.85-1.21,1.93-1.61,1.08-.39,2.6-.59,4.41-.52,3.61.14,8.36,1.31,13.28,3.5h.01ZM80.83,256.01h0c.44.38.86.76,1.24,1.13-.29.78-.82,2.14-1.24,2.99-.27.52-.6,1.01-.89,1.4-.08-.05-.15-.11-.23-.16-.33-.24-.66-.47-1-.71.41-.62.94-1.46,1.33-2.34.4-.91.64-1.73.79-2.3h0ZM83.61,261.26c.25-.63.43-1.2.57-1.7.39.54.7,1.06.92,1.55.51,1.11.57,1.96.32,2.62l-.84,2.17c-.56-.77-1.28-1.55-2.15-2.34.35-.56.82-1.38,1.18-2.31h0ZM67.75,256.84h0c4.24,1.9,8.04,4.09,10.91,6.19,1.29.95,2.36,1.89,3.22,2.76.48.52.88,1.02,1.17,1.47.6.95.68,1.57.54,1.92s-.6.73-1.65.94c-.1.01-.21.03-.31.04,1.33-1.29.52-2.9-1.75-4.8-3.02-2.54-7.42-5.22-12.53-7.51h0c-5.11-2.29-9.98-3.76-13.77-4.27-3.3-.29-4.16.17-4.38,2.07-.07-.09-.13-.19-.19-.28-.6-.95-.68-1.57-.54-1.92s.6-.73,1.65-.94c.5-.1,1.11-.15,1.81-.15,1.18.04,2.55.2,4.07.52,3.4.71,7.53,2.07,11.76,3.96h0ZM66.74,259.49h0c1.33.6,2.6,1.22,3.82,1.86-.63,1.12-2.38,3.87-5.55,6.29-2.98,2.28-4.68,2.89-5.28,3.17-3.05-1.84-5.42-4.36-6.89-7.08-1.06-1.99-1.65-4.06-1.7-6.08.01-1.81.11-2.6,2.24-2.31,3.59.49,8.35,1.91,13.35,4.15h0ZM75.44,264.21h0c.68.44,1.32.9,1.92,1.34,0,.04.03.06.03.09.09.54-2.3,3.7-6.27,5.23-3.96,1.53-5.39,1.28-5.39,1.28,0,0,1.99-.95,4.72-2.73,2.36-1.55,4.45-4.44,4.98-5.21h.01ZM79.3,267.13h0c.41.36.8.72,1.14,1.06-1.4,2.39-3.75,4.09-6.66,4.92-2.61.75-5.65.77-8.75-.04,1.6.13,3.86.11,6.59-.45,4.53-.93,7-4.38,7.69-5.49h0Z" style="fill:#000; stroke-width:0px;"/><path id="x" d="M116.74,227.6h0c1.39-.11,2.79.4,3.91,1.28,1.44,1.13,2.5,2.98,2.45,4.95-.02,1.47-.89,2.87-2.15,3.46-.18.09-.43.14-.39.42-.18,1.76-.9,3.37-1.61,4.94.54.15,1.1.22,1.6.51.73.37,1.14,1.21,1.19,2.05.09,1.48-.34,2.92-.85,4.27-.41,1.15-1.03,2.22-1.95,2.96-.12.11-.32.25-.41.32-.78.56-1.67.9-2.55,1.21-.74,1.16-1.97,1.88-3.25,2.11-.29.07-.6-.04-.88-.05-.75.7-1.71,1.14-2.7,1.15-1.01,0-2.09-.27-2.84-1.03-.9-.91-1.53-2.08-2.1-3.25-.76-1.67-1.43-3.41-1.85-5.21-.2-.72-.23-1.51.02-2.22.46-1.43,1.36-2.63,2.24-3.79,2.15-2.7,4.57-5.13,7.02-7.5.52-.52,1.08-1,1.58-1.53-.15-.91-.13-1.87.25-2.72.55-1.38,1.91-2.24,3.27-2.32h0Z" style="fill:#fff; stroke-width:0px;"/><path id="y" d="M103.32,246.34h0c-.74.42.94,6.26,1.96,8.69,1.02,2.42,2.9,1.2,4.7.85,1.8-.36,4.8-1.71,6.56-2.64s2.86-1.96,4.43-5.04c1.56-3.09-.5-4.34-1.8-4.34s-1.53.85-1.89,1.1c-.37.25-1.13-.25-1.33-.32-.21-.07-.68.44-.73,1.5-.05,1.06-1.06,2.32-1.75,1.63s-1.18-2.83-1.47-2.42-.52,2.34-1.63,2.07c-1.1-.27-1.12-2.01-1.51-2.39s-.94-.11-1.24.63-.37,2.72-1.98,2.65c-1.61-.06-2.33-1.97-2.33-1.97h0Z" style="fill:#999; stroke-width:0px;"/><path id="z" d="M120.8,228.13h0c-1.28-.92-2.86-1.42-4.4-1.21-1.15.15-2.26.75-2.98,1.73-.69.92-1.01,2.12-.93,3.3,0,.14.02.28.04.42-2.34,2.22-4.67,4.49-6.82,6.93-1.08,1.23-2.13,2.51-3,3.93-.52.85-.97,1.77-1.12,2.78-.08.55-.03,1.11.1,1.65.27,1.28.7,2.51,1.16,3.71.62,1.58,1.33,3.15,2.32,4.5.5.68,1.13,1.3,1.9,1.61,1.04.43,2.2.54,3.27.22.62-.18,1.2-.5,1.7-.93.58.13,1.17-.05,1.72-.24,1.02-.36,1.97-1.02,2.62-1.96.31-.11.62-.22.92-.35,1.1-.46,2.14-1.13,2.92-2.1.48-.59.85-1.27,1.13-1.99.55-1.35.99-2.77,1.06-4.26.04-.83-.1-1.71-.55-2.41-.35-.56-.91-.93-1.49-1.15-.15-.06-.31-.1-.46-.14.6-1.33,1.13-2.73,1.3-4.21,1.16-.54,2.08-1.67,2.4-2.99.33-1.28.13-2.67-.4-3.86-.53-1.2-1.38-2.23-2.4-2.98h0ZM119.78,229.98h0c.31.24.58.49.84.8.56.66.96,1.48,1.07,2.37.09.77-.08,1.62-.58,2.2-.05.08-.04-.09-.07-.13-.39-1.49-1.28-2.81-2.43-3.72-.93-.71-2.11-1.1-3.25-.9-.23.04-.45.1-.67.19.21-.65.69-1.19,1.28-1.46.53-.26,1.16-.32,1.74-.24.74.1,1.45.42,2.07.89h0ZM117.29,233.24h0c.51.4.96.92,1.29,1.5.33.59.49,1.27.5,1.96.03.94-.19,1.86-.48,2.72-.42,1.2-.96,2.35-1.57,3.46-.13.22-.25.44-.38.66-.34,0-.67-.08-1.01-.06-.33.02-.7.11-.9.44-.11.18-.15.39-.15.6.04.13.18.06.27.06.37-.01.79.16.94.56.14.35.21.73.33,1.09.21.69.41,1.39.78,1.99.17.26.43.52.74.48.21-.01.41-.21.4-.45,0-.37-.15-.71-.24-1.05-.09-.32-.18-.64-.21-.97.4-.57.76-1.17,1.12-1.78.32-.22.72-.11,1.04.06.15.09.35.17.38.38.13.46.09.92.03,1.39-.17,1.14-.55,2.22-1,3.26-.28.62-.67,1.2-1.19,1.64-.68.58-1.49.9-2.31,1.18-.39-.32-.67-.77-.96-1.2-.59-.93-1.1-1.93-1.63-2.9-.11-.18-.24-.38-.44-.47-.17-.05-.33.09-.38.26-.11.31-.14.65-.17.97-.03,1.13.31,2.22.81,3.2.3.57.66,1.12,1.1,1.58-.48.38-1.04.61-1.62.72-1.03-.62-2.93-3.61-3.27-4.68-.05-.21-.11-.46-.31-.57-.19-.08-.35.1-.43.27-.59,1.64.15,3.66.97,4.93.2.31.43.61.66.9-.52.24-1.09.31-1.64.17-.33-.07-.68-.18-.95-.44-.17-.15-.34-.33-.48-.52-.63-.8-1.09-1.72-1.51-2.65-.62-1.38-1.12-2.84-1.51-4.32-.08-.35-.21-.7-.18-1.07.05-.57.32-1.09.58-1.58.56-1.01,1.28-1.93,1.99-2.82,1.38-1.68,2.88-3.25,4.4-4.79,1.41-1.43,2.87-2.81,4.34-4.18.1,0,.17-.11.26-.13.56-.29,1.26-.27,1.79.08.07.04.13.09.2.14h0Z" style="fill:#000; stroke-width:0px;"/><path id="aa" d="M10.9,279.74h0c.16-.04.32-.07.48-.11.94-.19,1.9-.37,2.86-.43,1.2-.08,2.38.4,3.39,1.07.29.15.64.11.95.1,2.07-.07,4.16.19,6.15.85,2.17.7,4.2,2.01,5.64,3.91.09.11.21.29.27.37.54.77.94,1.65,1.3,2.53.05.11.11.29.15.39.54,1.43.9,2.93,1.11,4.45.04.29.09.69.12.98.06.59.1,1.2.12,1.77.12,2.73-.29,5.45-.56,8.16-.13.47.08,1.07.54,1.18.32.1.6-.13.88-.27.2-.11.44-.22.62-.3.31-.13.61-.24.92-.34,2.05-.67,4.3-.42,6.26.47,1.23.59,2.28,1.53,3.35,2.39.72.8,1.36,1.71,2.04,2.56.71.82,1.13,1.88,1.39,2.95.37,1.42.32,2.95-.13,4.34-.34,1.09-.92,2.08-1.65,2.91-.29.27-.6.56-.67.98.14,2.28,0,4.57-.29,6.82.17,1.15-.04,2.31-.32,3.42-.07.3-.16.65-.23.94-.2.74-.41,1.47-.68,2.18-.05.13-.13.32-.16.41-.22.54-.47,1.09-.77,1.6-.51,1.02-1.44,1.74-2.46,2.09-1.52.49-3.15.4-4.71.11-2.86-.58-5.62-1.7-8.18-3.18-3.55-2.12-6.81-4.78-9.82-7.68-.35-.24-.52-.69-.5-1.13.07-.67.27-1.31.46-1.95.37-1.15.83-2.22,1.26-3.34-2.5-.62-4.99-1.24-7.46-1.96-.48-.15-.98-.31-1.35-.69-.09-.1-.23-.25-.3-.33-.55-.64-1.02-1.35-1.47-2.08-.83-1.34-1.61-2.76-2.3-4.17-.22-.44-.44-.9-.64-1.33-.54-1.17-1.04-2.36-1.5-3.57-1.25-3.22-2.14-6.61-2.48-10.08-.31-3.38-.25-6.84.54-10.14.34-1.3.72-2.65,1.51-3.71.1-.12.19-.24.28-.33.74-.7,1.61-1.22,2.51-1.65.12-.06.3-.13.39-.17.23-.1.49-.21.7-.29.44-.16.92-.34,1.4-.47.37-.11.69-.19,1.05-.28h0Z" style="fill:#ac8f7c; stroke-width:0px;"/><path id="ab" d="M13.64,279.86c-.63.07-1.39.2-2.18.37-2.39.52-5.1,1.42-5.54,2.07-.58.87-1.63,4.42-1.63,4.42.27-.12,2.37-3.19,5.67-2.24s4.59,5.1,4.59,5.1l7.23-2.39s3.71.49,6.8,1.91c3.09,1.42,3.48,3.86,3.48,3.86,0,0-.76-8.1-5.21-9.95-4.44-1.85-6.99-1.3-7.71-1.63s-2.98-1.81-5.5-1.54h0ZM38.27,304.68c-.5.04-1.05.12-1.61.24-2.4.52-4.91,1.66-4.1,2.2.99.66,2.17,1.76,3.48,2.03,1.31.26,2.88.78,2.88.78,0,0,2.93-2.76,4.38-2.46,1.44.3-2.34-2.97-5.02-2.79h0Z" style="fill:#fff; stroke-width:0px;"/><path id="ac" d="M9.5,279.58h0c-1.71.54-3.45,1.27-4.85,2.52-1.08,1.08-1.57,2.63-1.97,4.11-.82,3.2-.94,6.6-.7,9.93.28,3.56,1.12,7.02,2.35,10.32,1.2,3.26,2.7,6.4,4.47,9.36.66,1.08,1.36,2.17,2.24,3.06.77.59,1.77.73,2.66,1.02,1.87.52,3.76,1,5.65,1.46-.59,1.52-1.24,3.04-1.52,4.67-.09.65.11,1.38.63,1.76,2.93,2.84,6.11,5.43,9.54,7.53,2.6,1.57,5.45,2.76,8.39,3.41,1.58.32,3.21.46,4.8.07,1.27-.32,2.47-1.11,3.13-2.35,1.07-1.81,1.63-3.92,2.1-5.97.21-.97.33-1.97.2-2.96.29-2.24.42-4.49.29-6.75.09-.38.47-.54.66-.85,1.59-1.84,2.36-4.5,1.91-6.98-.22-1.2-.63-2.37-1.3-3.36-.8-1-1.54-2.04-2.38-3-1.07-.87-2.13-1.8-3.34-2.44-1.82-.87-3.92-1.21-5.86-.82-1.03.21-2.03.6-2.95,1.14-.3.09-.41-.3-.32-.54.25-2.57.64-5.16.58-7.74-.05-3.6-.77-7.26-2.51-10.36-1.33-2.26-3.47-3.92-5.8-4.82-2.16-.85-4.43-1.2-6.71-1.17-.35,0-.7.07-1.04-.01-.65-.44-1.36-.78-2.07-.97-.92-.28-1.87-.19-2.8-.04-1.18.16-2.36.42-3.52.77h.01ZM11.81,282.07h0c.92-.23,1.85-.52,2.8-.49,1.87.17,3.54,1.44,4.59,3.09,1.49,2.25,2.26,4.93,3.02,7.53,1.34,4.75,2.48,9.56,4.08,14.2.87,2.52,1.86,5.03,3.17,7.31,1.89,3.13,4.49,5.64,7.1,8.05,2.24,2.06,4.6,3.97,6.82,6.07.17.2.42.37.53.6-.22,2.32-.88,4.59-1.99,6.59-.55.83-1.55,1-2.43,1.05-1.7.06-3.38-.39-4.99-.92-2.49-.82-4.85-2.09-7.02-3.63-2.3-1.6-4.46-3.43-6.55-5.34,2.52-1.2,5.03-2.39,7.54-3.59,3.09,2.88,6.22,5.71,9.2,8.73.6.6,1.23,1.41,1.1,2.36-.03.22-.09.42-.19.61.66-.11,1.18-.73,1.24-1.45.15-1.03-.35-2.03-1.07-2.67-2.05-2.11-4.21-4.08-6.35-6.09-.99-.93-1.99-1.85-2.99-2.77-.32-1.92-.64-3.84-.96-5.76-1.28-.34-2.56-.7-3.85-1.04-.41-.5-.9-.95-1.12-1.58.09-.2,0-.29-.17-.36-.19-.25-.21-.6-.36-.87-1.74-4.42-3.23-8.95-4.76-13.47-.94-2.78-1.82-5.59-2.76-8.38-.5-1.32-1.04-2.68-1.83-3.86-.99-1.23-2.49-2.17-4.04-1.91-.37.06-.73.19-1.05.4,1.39.24,2.84.82,3.73,2.06,1.07,1.46,1.56,3.27,2.15,4.99,1.27,4,2.6,7.97,3.95,11.94,1.14,3.28,2.26,6.56,3.57,9.77.26.62.52,1.25,1,1.72.17.2.34.4.5.6-3,.5-6,1-8.99,1.51-.6-.2-1.26-.3-1.81-.63-.84-.92-1.45-2.04-2.1-3.12-2-3.51-3.62-7.27-4.76-11.21-1.18-4.26-1.55-8.8-.9-13.21.26-1.55.58-3.15,1.43-4.45.44-.61,1.18-.8,1.8-1.12,1.2-.51,2.45-.9,3.7-1.24v-.03ZM21.59,282.88h0c2.15.36,4.34,1.08,6.02,2.62,1.43,1.27,2.26,3.14,2.8,5.02,1.05,3.56.92,7.37.44,11.03-.21,1.45-.4,2.95.01,4.38.38,1.44,1.14,2.87,2.29,3.76.78.61,1.75.81,2.68.88,2.07.27,4.14,1.06,5.64,2.67,1.33,1.39,2.12,3.27,2.47,5.2.4,2.06.37,4.19.25,6.28-3.93-3.46-8.04-6.77-11.35-10.95-1.08-1.36-1.9-2.92-2.56-4.56-1.74-4.14-2.89-8.52-4.1-12.86-.85-3.06-1.63-6.13-2.71-9.1-.61-1.6-1.46-3.07-2.4-4.46.17.04.35.06.52.1h0ZM36.59,306.3c1.79-.57,3.76-.22,5.35.81,1.43.9,2.72,2.09,3.71,3.51.98,1.43,1.55,3.31,1.12,5.08-.11.48-.21.97-.31,1.46-.62-1.91-1.31-3.81-2.56-5.35-1.64-2.13-4.09-3.42-6.56-3.93-1.08-.24-2.17-.37-3.27-.54.84-.35,1.65-.78,2.52-1.05h0ZM27.2,317.22h0c.25,1.53.51,3.05.76,4.57-2.37,1.1-4.74,2.21-7.11,3.32.74-2.17,1.62-4.27,2.51-6.36,1.26-.62,2.52-1.23,3.78-1.84.01.1.03.19.05.29h.01Z" style="fill:#000; stroke-width:0px;"/></g><polygon points="49.38 210.59 52.32 214.88 55.59 210.78 54.64 208.31 52.71 209.16 52.32 207.73 49.38 210.59" style="fill:#826c4a; stroke-width:0px;"/></svg>